<svg width="512" height="512" viewBox="0 0 512 512" fill="none" xmlns="http://www.w3.org/2000/svg">
<g clip-path="url(#clip0_1136_3366)">
<rect width="512" height="512" fill="black"/>
<circle cx="87.28" cy="72.28" r="4.28" fill="white"/>
<circle cx="96.4933" cy="4.16" r="3.16" fill="white"/>
<circle cx="204.827" cy="81.16" r="3.16" fill="white"/>
<circle cx="307.2" cy="53.2" r="4.2" fill="white"/>
<circle cx="388.653" cy="45.32" r="3.32" fill="white"/>
<circle cx="443.187" cy="6.52" r="3.52" fill="white"/>
<circle cx="72.52" cy="162.853" r="2.52" fill="white"/>
<circle cx="113.253" cy="111.253" r="2.92" fill="white"/>
<circle cx="249.147" cy="162.813" r="4.48" fill="white"/>
<circle cx="303.64" cy="120.973" r="2.64" fill="white"/>
<circle cx="387.213" cy="89.213" r="3.88" fill="white"/>
<circle cx="492.627" cy="131.293" r="2.96" fill="white"/>
<circle cx="26.44" cy="199.107" r="4.44" fill="white"/>
<circle cx="93.7733" cy="220.107" r="2.44" fill="white"/>
<circle cx="218.947" cy="193.947" r="4.28" fill="white"/>
<circle cx="328.52" cy="207.187" r="3.52" fill="white"/>
<circle cx="360.253" cy="254.587" r="2.92" fill="white"/>
<circle cx="436.027" cy="241.027" r="4.36" fill="white"/>
<circle cx="9.72" cy="334.72" r="2.72" fill="white"/>
<circle cx="98.2133" cy="316.88" r="3.88" fill="white"/>
<circle cx="218.947" cy="304.28" r="4.28" fill="white"/>
<circle cx="321.64" cy="286.64" r="4.64" fill="white"/>
<circle cx="375.133" cy="336.8" r="3.8" fill="white"/>
<circle cx="452.427" cy="266.76" r="4.76" fill="white"/>
<circle cx="77.48" cy="427.813" r="4.48" fill="white"/>
<circle cx="147.093" cy="401.093" r="4.76" fill="white"/>
<circle cx="213.027" cy="345.693" r="4.36" fill="white"/>
<circle cx="336.16" cy="386.493" r="3.16" fill="white"/>
<circle cx="356.533" cy="424.533" r="4.2" fill="white"/>
<circle cx="508.747" cy="371.413" r="3.08" fill="white"/>
<circle cx="14.84" cy="494.507" r="3.84" fill="white"/>
<circle cx="124.893" cy="510.227" r="3.56" fill="white"/>
<circle cx="193.107" cy="447.107" r="2.44" fill="white"/>
<circle cx="309.36" cy="449.027" r="4.36" fill="white"/>
<circle cx="407.573" cy="444.907" r="3.24" fill="white"/>
<circle cx="486.107" cy="491.107" r="3.44" fill="white"/>
</g>
<defs>
<clipPath id="clip0_1136_3366">
<rect width="512" height="512" fill="white"/>
</clipPath>
</defs>
</svg>
