<svg width="512" height="512" viewBox="0 0 512 512" fill="none" xmlns="http://www.w3.org/2000/svg">
<g clip-path="url(#clip0_1136_3365)">
<rect width="512" height="512" fill="black"/>
<circle cx="63" cy="65" r="3" fill="white"/>
<circle cx="180.04" cy="76.64" r="4.64" fill="white"/>
<circle cx="220.6" cy="91.8" r="4.8" fill="white"/>
<circle cx="346" cy="28.8" r="4.8" fill="white"/>
<circle cx="446.36" cy="63.76" r="2.76" fill="white"/>
<circle cx="85.72" cy="167.12" r="2.72" fill="white"/>
<circle cx="118.76" cy="183.76" r="4.36" fill="white"/>
<circle cx="222.32" cy="144.92" r="3.52" fill="white"/>
<circle cx="361.96" cy="181.16" r="4.76" fill="white"/>
<circle cx="499.04" cy="132.84" r="4.44" fill="white"/>
<circle cx="70.72" cy="279.52" r="3.72" fill="white"/>
<circle cx="157.6" cy="265" r="4.2" fill="white"/>
<circle cx="307.96" cy="304.96" r="3.16" fill="white"/>
<circle cx="407.88" cy="284.48" r="2.68" fill="white"/>
<circle cx="495.28" cy="281.48" r="4.68" fill="white"/>
<circle cx="62.6" cy="343.8" r="4.6" fill="white"/>
<circle cx="177.64" cy="336.44" r="3.24" fill="white"/>
<circle cx="278.8" cy="320.2" r="3" fill="white"/>
<circle cx="337.76" cy="390.76" r="2.56" fill="white"/>
<circle cx="505.68" cy="321.28" r="4.08" fill="white"/>
<circle cx="63.44" cy="417.04" r="2.44" fill="white"/>
<circle cx="150.84" cy="484.04" r="4.44" fill="white"/>
<circle cx="236.04" cy="513.84" r="4.24" fill="white"/>
<circle cx="354.12" cy="472.52" r="2.92" fill="white"/>
<circle cx="479.12" cy="424.12" r="3.52" fill="white"/>
</g>
<defs>
<clipPath id="clip0_1136_3365">
<rect width="512" height="512" fill="white"/>
</clipPath>
</defs>
</svg>
