<svg width="512" height="512" viewBox="0 0 512 512" fill="none" xmlns="http://www.w3.org/2000/svg">
<g filter="url(#filter0_f_978_6541)">
<path fill-rule="evenodd" clip-rule="evenodd" d="M273.501 87.1731C277.378 87.6872 283.064 88.6254 286.138 89.2577C302.217 92.5668 318.498 98.9537 332.393 107.403C345.685 115.486 358.577 126.689 367.962 138.313C374.958 146.978 381.304 157.902 385.52 168.541C391.29 183.099 394.016 197.01 394.009 211.86C394.005 220.426 393.576 225.315 392.179 232.736C388.836 250.486 380.539 268.301 368.093 284.452C364.34 289.321 351.204 302.592 346.721 306.043C343.898 308.216 343.968 308.116 348.313 303.765C357.315 294.75 364.108 285.107 370.402 272.406C375.215 262.694 378.807 252.295 380.794 242.318C382.433 234.082 383.099 227.542 383.099 219.647C383.099 209.073 381.818 199.886 378.82 188.952C374.897 174.643 367.305 159.685 357.035 146.026C348.919 135.232 340.091 126.302 330.022 118.705C323.346 113.667 316.983 109.694 309.427 105.847C301.514 101.817 295.988 99.5378 287.448 96.7787C264.003 89.2036 237.684 87.0976 212.79 90.8059C209.539 91.29 206.162 91.7918 205.287 91.9204C204.411 92.0491 205.639 91.655 208.015 91.0445C213.875 89.539 227.003 87.3658 233.937 86.7535C237.063 86.4772 240.44 86.1717 241.44 86.0749C242.441 85.9776 248.478 85.9749 254.856 86.0681C263.121 86.1894 268.477 86.5067 273.501 87.1731ZM203.345 92.4504C203.194 92.6013 202.801 92.6177 202.473 92.4863C202.11 92.3413 202.218 92.2336 202.748 92.2118C203.227 92.1922 203.496 92.2995 203.345 92.4504ZM201.497 92.9336C201.33 93.1 201.058 93.1 200.891 92.9336C200.724 92.7668 200.861 92.6304 201.194 92.6304C201.527 92.6304 201.664 92.7668 201.497 92.9336ZM256.22 105.144C271.055 106.979 284.114 110.79 297.376 117.155C308.114 122.308 316.889 128.055 326.026 135.919C337.792 146.045 347.5 158.596 354.249 172.404C359.237 182.611 362.394 192.438 364.508 204.335C365.714 211.12 366.184 226.617 365.396 233.568C363.991 245.955 360.644 257.488 355.174 268.796C349.459 280.61 342.275 290.993 333.554 300.04C330.941 302.751 327.027 306.385 324.856 308.115C311.534 318.734 295.688 325.199 278.049 327.213C271.632 327.945 259.204 327.496 253.434 326.323C240.887 323.773 232.402 319.721 223.379 311.97C218.866 308.094 214.451 302.559 211.84 297.506C210.681 295.264 209.271 291.566 208.632 289.093C207.729 285.602 207.482 283.491 207.45 278.997C207.371 267.986 210.16 258.882 216.59 249.163C224.486 237.228 236.986 227.432 250.308 222.74C256.837 220.44 260.886 219.707 267.134 219.692C274.244 219.674 277.346 220.542 280.132 223.328C282.532 225.726 283.506 228.572 283.506 233.183C283.506 237.064 282.6 240.395 280.318 244.915C278.303 248.904 273.792 254.594 270.41 257.412C264.731 262.145 257.465 264.786 253.442 263.581C252.071 263.171 251.673 262.822 251.673 262.034C251.673 261.475 252.01 260.536 252.422 259.948L253.171 258.879L253.988 259.96C254.66 260.85 255.194 261.035 256.991 261.002C259.848 260.949 263.455 259.346 266.855 256.619C272.217 252.318 276.284 246.327 277.783 240.522C278.179 238.986 278.503 236.421 278.503 234.823C278.503 232.705 278.226 231.373 277.48 229.915C276.917 228.814 275.88 227.492 275.173 226.978C274.036 226.149 273.229 226.042 268.124 226.046C261.67 226.052 258.561 226.688 252.127 229.317C245.283 232.114 241.468 234.681 235.715 240.36C232.803 243.235 229.398 247.122 228.149 248.997C221.326 259.237 218.151 270.154 219.359 279.224C220.751 289.684 225.994 297.576 236.105 304.429C239.619 306.811 244.757 309.01 250.111 310.424C253.774 311.392 255.114 311.496 263.724 311.485C271.829 311.475 273.927 311.325 277.594 310.494C292.618 307.09 304.997 300.464 315.823 290.031C325.814 280.404 332.413 270.144 336.865 257.316C340.349 247.282 341.505 239.237 341.123 227.688C340.924 221.657 340.572 218.313 339.7 214.151C337.454 203.431 333.569 193.557 327.695 183.638C308.617 151.423 276.109 131.047 237.64 127.194C231.608 126.589 218.564 126.587 212.498 127.19C194.92 128.935 177.052 134.424 161.857 142.747C156.031 145.938 145.875 152.781 140.029 157.455C133.791 162.442 121.216 174.94 116.07 181.268C108.508 190.567 101.094 201.84 96.4887 211.042C93.5741 216.866 90.3585 225.113 89.0906 230.016C87.7291 235.283 87.6249 233.316 88.8764 225.973C92.4149 205.221 103.696 182.406 120.618 161.776C125.856 155.391 134.414 146.602 140.483 141.376C148.524 134.452 156.034 129.331 166.543 123.605C186.559 112.7 207.782 106.26 229.617 104.466C236.151 103.929 249.061 104.258 256.22 105.144ZM267.817 171.997C276.537 173.194 283.241 175.225 290.548 178.884C296.568 181.898 300.921 185.007 305.952 189.88C313.392 197.088 318.517 205.822 321.091 215.681C321.995 219.138 322.306 221.656 322.485 226.951C322.66 232.101 322.534 234.821 321.967 238.07C319.971 249.525 314.225 260.752 305.862 269.536C301.593 274.02 296.393 278.271 291.604 281.191C288.267 283.225 283.961 285.481 283.961 285.195C283.961 285.095 285.34 284.12 287.026 283.028C290.725 280.633 298.389 273.141 301.588 268.794C306.727 261.81 311.078 252.778 313.048 245.006C314.401 239.663 315.333 233.019 315.336 228.688C315.344 217.896 311.915 207.31 305.706 198.961C302.331 194.423 295.956 188.396 291.237 185.281C281.76 179.026 270.325 174.835 257.812 173.029C255.561 172.705 250.258 172.431 246.027 172.422C237.498 172.403 238.662 171.95 248.717 171.377C256.161 170.952 261.455 171.124 267.817 171.997ZM257.72 184.871C269.703 187.273 278.971 191.678 287.26 198.908C292.462 203.445 296.875 208.962 299.581 214.311C300.238 215.609 301.329 218.473 302.006 220.675C303.137 224.356 303.238 225.318 303.262 232.633C303.285 239.602 303.154 241.094 302.21 244.678C300.94 249.495 298.323 255.754 295.956 259.636C291.552 266.861 284.047 274.857 276.82 280.025C269.728 285.096 261.257 288.872 253.037 290.625C247.768 291.748 239.193 291.779 235.644 290.686C225.792 287.654 224.494 275.121 232.749 262.711C237.984 254.839 244.497 249.688 251.533 247.857C255.058 246.938 257.259 246.997 258.55 248.041C259.6 248.891 259.604 248.93 258.835 250.541C258.034 252.22 257.13 252.721 257.13 251.485C257.13 251.104 256.567 250.577 255.879 250.313C252.612 249.06 246.341 252.005 241.213 257.201C239.337 259.101 237.135 261.78 236.319 263.153C233.354 268.143 231.819 274.551 232.596 278.695C233.075 281.249 233.981 282.743 235.935 284.196C237.066 285.038 237.804 285.129 243.183 285.089C248.274 285.051 249.785 284.862 253.264 283.826C258.141 282.374 264.665 279.327 268.564 276.68C270.115 275.627 272.995 273.228 274.962 271.349C283.051 263.625 288.933 253.408 291.031 243.441C291.394 241.714 291.692 238.231 291.692 235.701C291.692 228.616 290.085 223.3 286.229 217.625C282.255 211.776 274.783 205.846 267.928 203.103C261.349 200.47 258.051 199.844 249.399 199.587C242.633 199.386 240.595 199.494 235.8 200.312C218.793 203.21 202.028 212.589 190.618 225.587C183.887 233.256 178.216 242.721 174.685 252.179C171.188 261.545 169.806 269.517 169.78 280.466C169.767 286.214 170.001 289.483 170.738 293.848C172.417 303.787 175.145 311.958 179.953 321.455C182.991 327.456 188.158 335.489 192.551 341.044C196.646 346.221 204.3 353.928 209.607 358.219C218.802 365.654 230.592 372.484 241.116 376.472C249.17 379.525 258.25 381.861 268.044 383.401C272.206 384.055 275.875 384.219 286.007 384.203C296.805 384.185 299.708 384.031 305.107 383.186C312.303 382.059 321.993 379.716 328.207 377.601C340.967 373.256 352.985 366.963 364.326 358.689C371.994 353.094 377.034 348.758 384.012 341.755C396.922 328.798 406.854 315.166 414.448 299.98C417.93 293.016 420.42 286.661 422.045 280.588L423.14 276.497L422.869 279.679C422.24 287.104 419.561 297.598 415.967 306.725C413.627 312.665 409.282 321.522 405.791 327.465C394.67 346.401 376.886 366.045 360.036 378.007C351.812 383.846 338.54 391.044 328.048 395.355C321.425 398.076 311.536 401.336 305.247 402.873C297.655 404.728 287.663 406.212 278.954 406.777C272.712 407.182 268.985 407.178 262.95 406.761C249.611 405.84 237.532 403.374 225.777 399.172C213.675 394.846 198.841 386.539 188.461 378.274C182.546 373.565 172.771 363.489 168.126 357.311C160.966 347.79 155.38 337.504 151.64 326.953C149.453 320.781 147.227 311.675 146.125 304.387C145.36 299.329 145.139 295.816 145.144 288.77C145.15 279.039 145.711 273.888 147.749 264.866C150.675 251.906 157.114 237.591 165.213 226.042C169.591 219.797 174.835 213.479 179.253 209.125C190.523 198.016 204.206 190.356 220.091 186.262C228.445 184.109 233.451 183.575 243.714 183.74C250.776 183.853 253.907 184.106 257.72 184.871ZM164.048 206.171C159.903 210.045 156.45 213.967 152.282 219.538C139.433 236.705 131.109 257.46 128.652 278.451C127.879 285.064 127.773 297.319 128.439 303.316C130 317.38 133.943 330.583 140.455 343.556C150.575 363.713 164.612 380.478 182.408 393.66C198.114 405.294 217.077 413.774 237.434 418.269C250.099 421.064 260.463 422.172 273.956 422.172C283.388 422.172 290.492 421.656 299.156 420.342C302.386 419.852 305.098 419.52 305.181 419.604C305.413 419.835 297.573 421.566 291.687 422.583C279.367 424.711 273.9 425.13 258.721 425.111C242.891 425.091 238.343 424.686 225.751 422.177C210.77 419.192 195.714 413.689 183.301 406.661C177.027 403.109 169.485 398.058 164.26 393.91C157.998 388.939 148.8 379.904 143.759 373.771C139.22 368.25 134.515 361.347 131.41 355.654C126.744 347.097 121.828 333.894 119.624 323.998C117.755 315.61 116.957 308.212 116.951 299.225C116.943 287.499 118.388 277.621 121.672 266.956C125.945 253.073 133.28 239.245 143.011 226.724C147.309 221.193 156.48 211.772 162.312 206.895C164.813 204.804 166.962 203.098 167.087 203.105C167.212 203.112 165.844 204.492 164.048 206.171ZM227.115 226.042C227.115 226.167 227.013 226.269 226.888 226.269C226.763 226.269 226.661 226.167 226.661 226.042C226.661 225.917 226.763 225.814 226.888 225.814C227.013 225.814 227.115 225.917 227.115 226.042ZM226.206 226.432C226.206 226.522 225.051 227.362 223.638 228.299C220.148 230.615 213.461 237.121 210.307 241.269C203.797 249.832 200.213 257.118 197.792 266.712C196.134 273.284 195.589 278.502 195.866 285.134C196.366 297.054 200.28 306.754 208.368 316.118C211.025 319.194 216.386 323.722 220.521 326.382C228.128 331.275 238.079 335.254 247.432 337.142C253.533 338.373 262.832 339.154 268.044 338.873C271.333 338.696 271.876 338.739 270.318 339.051C269.192 339.277 264.113 339.59 259.03 339.747C248.424 340.074 242.781 339.576 235.016 337.63C216.132 332.896 201.626 321.781 193.798 306.043C190.144 298.697 188.381 290.96 188.368 282.215C188.355 273.228 190.117 265.65 194.137 257.406C196.697 252.158 199.939 247.324 203.702 243.148C209.319 236.914 215.538 231.97 222.602 228.121C226.114 226.208 226.206 226.165 226.206 226.432ZM257.039 254.088C257.339 254.388 257.584 255.063 257.584 255.588C257.584 256.113 257.339 256.788 257.039 257.088C256.739 257.388 256.063 257.633 255.538 257.633C255.013 257.633 254.337 257.388 254.037 257.088C253.737 256.788 253.492 256.113 253.492 255.588C253.492 255.063 253.737 254.388 254.037 254.088C254.337 253.788 255.013 253.542 255.538 253.542C256.063 253.542 256.739 253.788 257.039 254.088ZM310.64 418.394C310.473 418.56 310.2 418.56 310.034 418.394C309.867 418.227 310.003 418.09 310.337 418.09C310.67 418.09 310.807 418.227 310.64 418.394ZM308.821 418.848C308.654 419.014 308.381 419.014 308.214 418.848C308.048 418.681 308.184 418.545 308.518 418.545C308.851 418.545 308.988 418.681 308.821 418.848ZM307.03 419.274C306.879 419.425 306.487 419.441 306.159 419.31C305.796 419.165 305.904 419.057 306.434 419.035C306.913 419.016 307.181 419.123 307.03 419.274Z" fill="white"/>
</g>
<defs>
<filter id="filter0_f_978_6541" x="72" y="70" width="367.14" height="371.111" filterUnits="userSpaceOnUse" color-interpolation-filters="sRGB">
<feFlood flood-opacity="0" result="BackgroundImageFix"/>
<feBlend mode="normal" in="SourceGraphic" in2="BackgroundImageFix" result="shape"/>
<feGaussianBlur stdDeviation="8" result="effect1_foregroundBlur_978_6541"/>
</filter>
</defs>
</svg>
