<svg width="512" height="512" viewBox="0 0 512 512" fill="none" xmlns="http://www.w3.org/2000/svg">
<g clip-path="url(#clip0_979_6548)">
<g filter="url(#filter0_f_979_6548)">
<path fill-rule="evenodd" clip-rule="evenodd" d="M461.644 71.322C470.57 71.5388 473.178 71.7415 472.898 72.196C472.785 72.3792 473.755 72.5155 475.198 72.5185C476.571 72.5216 481.229 72.7535 485.549 73.0336C489.869 73.3137 495.145 73.6435 497.275 73.7668C499.546 73.8983 501.316 74.1613 501.557 74.4031C502.033 74.8802 506.989 75.5253 510.564 75.575C512.84 75.6068 512.261 76.1589 509.881 76.2267C506.037 76.3363 497.862 77.1657 496.989 77.5346C496.52 77.7328 493.83 77.9945 491.013 78.1157C488.195 78.2369 483.201 78.4828 479.914 78.6616C476.627 78.8407 469.409 79.2338 463.873 79.5352C457.636 79.8749 453.721 80.2232 453.58 80.4516C453.456 80.6544 452.299 80.8766 451.01 80.9455C448.109 81.1006 439.007 81.7115 433.983 82.0883C431.883 82.2458 430.086 82.2389 429.91 82.0728C429.73 81.904 429.412 81.9266 429.174 82.1252C428.942 82.3177 426.942 82.6228 424.728 82.804C422.514 82.9848 420.606 83.2886 420.489 83.479C420.3 83.7848 417.733 84.0755 405.689 85.1564C404.026 85.3053 402.565 85.5909 402.442 85.7906C402.319 85.9902 401.067 86.2543 399.66 86.3776C396.489 86.6553 385.434 87.969 381.98 88.4782C381.364 88.569 380.951 88.7895 381.061 88.9686C381.171 89.1474 381.11 89.2936 380.924 89.2936C380.277 89.2936 375.206 89.9864 370.464 90.7223C367.747 91.1443 365.519 91.6614 365.304 91.9203C365.095 92.1706 364.433 92.3757 363.833 92.3757C363.232 92.3757 362.097 92.5203 361.309 92.6966C360.522 92.8733 358.663 93.2161 357.178 93.4593C355.693 93.7021 354.31 94.0641 354.104 94.2634C353.899 94.463 352.655 94.8226 351.34 95.0627C350.025 95.3028 348.258 95.6418 347.413 95.8164C346.567 95.9911 345.492 96.1973 345.022 96.2747C342.368 96.7123 341.401 96.9781 341.095 97.3534C340.907 97.5835 340.216 97.8661 339.558 97.9811C338.901 98.0959 337.671 98.3455 336.826 98.5352C335.981 98.7253 334.309 99.0972 333.11 99.3623C331.912 99.627 330.836 99.989 330.72 100.166C330.535 100.448 324.533 102.022 321.63 102.551C321.066 102.653 320.33 103.026 319.994 103.378C319.658 103.731 319.114 104.019 318.785 104.019C318.456 104.019 317.271 104.269 316.152 104.575C315.032 104.88 313.847 105.159 313.518 105.196C313.188 105.232 312.727 105.508 312.493 105.807C312.259 106.107 311.376 106.512 310.531 106.707C305.751 107.81 304.042 108.322 304.042 108.651C304.042 109.02 303.146 109.383 300.286 110.173C299.441 110.407 298.396 110.735 297.965 110.904C297.533 111.073 296.88 111.211 296.513 111.211C296.147 111.211 295.846 111.411 295.846 111.656C295.846 112.09 295.225 112.36 292.09 113.284C291.245 113.533 290.28 114.014 289.946 114.353C289.612 114.692 288.921 115.059 288.409 115.169C287.898 115.278 287.127 115.511 286.695 115.687C286.264 115.862 285.633 116.005 285.294 116.005C284.954 116.005 284.262 116.391 283.756 116.862C283.249 117.333 282.635 117.718 282.392 117.718C282.149 117.718 281.473 117.956 280.89 118.248C280.308 118.539 279.555 118.841 279.216 118.919C277.759 119.254 275.878 120.073 275.981 120.328C276.043 120.48 275.245 120.922 274.209 121.31C273.172 121.698 272.212 122.127 272.075 122.264C271.939 122.4 271.474 122.512 271.043 122.512C270.611 122.512 270.103 122.804 269.912 123.16C269.722 123.516 268.776 124.093 267.81 124.441C266.844 124.79 265.956 125.307 265.839 125.591C265.72 125.876 265.47 126.114 265.282 126.121C265.094 126.129 264.403 126.388 263.746 126.698C263.088 127.008 262.051 127.464 261.44 127.71C260.83 127.957 260.324 128.314 260.316 128.503C260.301 128.881 257.312 130.382 256.542 130.4C255.901 130.414 254.867 131.224 254.867 131.711C254.867 131.925 254.633 132.101 254.347 132.101C254.062 132.101 253.255 132.462 252.555 132.903C251.854 133.345 251.089 133.64 250.854 133.56C250.619 133.48 250.427 133.592 250.427 133.809C250.427 134.395 249.763 134.922 247.94 135.784C247.042 136.208 246.219 136.786 246.111 137.068C246.003 137.35 245.662 137.584 245.353 137.588C245.045 137.592 244.408 137.897 243.939 138.265C243.469 138.634 242.82 138.939 242.495 138.943C242.171 138.947 241.654 139.336 241.346 139.806C241.038 140.277 240.564 140.663 240.291 140.663C240.018 140.663 239.291 141.048 238.676 141.519C238.06 141.99 237.312 142.375 237.014 142.375C236.716 142.375 236.382 142.657 236.273 143.001C236.164 143.346 235.401 143.966 234.577 144.378C233.753 144.791 232.989 145.361 232.881 145.644C232.772 145.928 232.027 146.462 231.225 146.832C229.461 147.644 228.869 148.04 227.295 149.465C226.628 150.068 225.989 150.544 225.876 150.523C225.403 150.437 224.473 151.04 224.473 151.433C224.473 151.666 223.782 152.213 222.936 152.649C222.091 153.085 221.4 153.63 221.4 153.86C221.4 154.09 220.977 154.458 220.461 154.677C219.315 155.165 217.643 156.593 217.643 157.084C217.643 157.282 217.466 157.443 217.248 157.443C217.032 157.443 216.378 157.801 215.797 158.239C215.216 158.677 214.471 159.134 214.143 159.255C213.814 159.377 213.545 159.643 213.545 159.846C213.545 160.313 211.802 161.87 211.263 161.884C211.041 161.89 210.531 162.357 210.13 162.923C209.729 163.488 209.193 163.95 208.94 163.95C208.687 163.95 207.993 164.566 207.398 165.32C206.803 166.073 206.125 166.69 205.892 166.69C205.39 166.69 204.173 167.98 203.874 168.83C203.758 169.159 203.421 169.429 203.125 169.429C202.569 169.429 200.91 170.896 200.91 171.387C200.91 171.539 200.568 171.816 200.15 172.002C199.732 172.188 199.051 172.848 198.636 173.469C198.222 174.09 197.757 174.6 197.604 174.603C197.128 174.611 195.731 176.066 195.418 176.878C195.255 177.302 194.915 177.648 194.662 177.648C194.139 177.648 192.509 179.389 192.64 179.807C192.751 180.163 192.026 180.877 191.255 181.17C190.922 181.297 190.546 181.673 190.42 182.007C190.131 182.771 189.633 183.275 188.887 183.558C188.567 183.68 188.006 184.365 187.641 185.08C187.275 185.796 186.5 186.732 185.918 187.162C185.336 187.591 184.859 188.131 184.859 188.36C184.858 188.866 183.365 190.661 182.941 190.665C182.775 190.666 182.448 191.051 182.213 191.521C181.978 191.99 181.594 192.758 181.359 193.227C181.124 193.697 180.777 194.082 180.588 194.084C180.201 194.087 179.571 195.002 178.64 196.912C178.295 197.618 177.82 198.196 177.583 198.196C177.153 198.196 175.291 201.751 175.295 202.562C175.296 202.798 175.058 202.99 174.766 202.99C174.451 202.99 173.899 203.753 173.408 204.866C172.953 205.898 172.309 207.027 171.976 207.375C171.173 208.213 169.831 210.883 169.832 211.637C169.833 211.967 169.609 212.237 169.334 212.237C169.042 212.237 168.685 212.798 168.471 213.592C168.271 214.338 167.979 215.027 167.822 215.124C167.665 215.222 167.342 215.999 167.104 216.851C166.866 217.703 166.484 218.401 166.256 218.401C166.028 218.401 165.406 219.827 164.873 221.569C163.925 224.673 163.844 224.98 163.738 225.85C163.71 226.085 163.456 226.278 163.174 226.278C162.892 226.278 162.662 226.549 162.662 226.881C162.662 227.91 161.101 233.736 160.693 234.228C160.168 234.863 159.009 241.587 158.509 246.893C158.284 249.285 157.986 251.171 157.847 251.085C157.389 250.801 157.103 255.416 157.278 260.274C157.372 262.901 157.603 265.149 157.791 265.27C157.98 265.391 158.314 267.339 158.534 269.599C158.754 271.859 159.096 274.556 159.295 275.592C159.962 279.077 160.684 281.926 160.943 282.099C161.173 282.252 162.083 285.321 162.567 287.578C162.668 288.049 162.937 288.665 163.164 288.948C163.525 289.396 164.002 290.548 165.47 294.513C165.661 295.031 166.03 295.454 166.289 295.454C166.548 295.454 166.76 295.703 166.76 296.007C166.76 296.863 168.89 301.267 169.208 301.069C169.364 300.973 169.492 301.044 169.492 301.228C169.492 301.411 169.3 301.639 169.065 301.735C168.784 301.848 168.821 301.916 169.173 301.934C169.467 301.949 170.069 302.616 170.511 303.417C170.953 304.217 171.684 305.252 172.136 305.715C172.588 306.179 173.17 307.067 173.429 307.689C173.689 308.311 174.139 308.912 174.43 309.024C174.721 309.136 175.212 309.763 175.522 310.417C175.832 311.072 176.984 312.477 178.082 313.541C179.18 314.604 180.079 315.631 180.08 315.824C180.082 316.145 181.061 316.86 183.049 317.99C183.481 318.236 183.835 318.59 183.835 318.777C183.835 319.232 185.602 320.772 186.14 320.786C186.375 320.792 186.567 320.944 186.567 321.124C186.567 321.627 188.246 323.194 188.786 323.194C189.556 323.194 191.006 323.954 191.012 324.362C191.018 324.726 193.933 326.276 194.611 326.276C194.799 326.276 195.417 326.7 195.986 327.218C196.554 327.735 197.933 328.463 199.05 328.834C200.167 329.205 201.234 329.699 201.422 329.932C201.759 330.35 208.519 332.44 209.534 332.44C209.822 332.44 210.137 332.649 210.235 332.905C210.333 333.16 211.002 333.461 211.723 333.574C212.444 333.686 214.503 334.012 216.301 334.299C218.098 334.585 221.706 334.982 224.319 335.181C226.932 335.38 229.219 335.692 229.401 335.875C229.82 336.295 239.051 336.315 239.309 335.897C239.414 335.726 240.998 335.482 242.829 335.355C244.66 335.228 248.617 334.809 251.622 334.423C254.627 334.038 257.701 333.651 258.452 333.564C259.204 333.477 259.972 333.215 260.16 332.981C260.471 332.596 267.472 330.83 270.149 330.463C270.759 330.379 271.258 330.127 271.258 329.903C271.258 329.446 273.14 328.673 274.251 328.673C274.649 328.673 275.07 328.519 275.186 328.331C275.302 328.142 275.764 327.988 276.213 327.988C276.663 327.988 277.153 327.78 277.303 327.525C277.581 327.053 279.113 326.115 279.113 326.417C279.113 326.767 283.744 324.881 284.111 324.382C284.325 324.092 284.786 323.799 285.136 323.731C285.709 323.62 287.107 323.056 289.273 322.061C289.695 321.867 290.041 321.503 290.041 321.252C290.041 321.002 290.292 320.797 290.598 320.797C290.905 320.797 291.711 320.452 292.391 320.031C293.071 319.61 293.665 319.301 293.712 319.346C293.984 319.603 294.48 319.358 294.48 318.967C294.48 318.545 294.928 318.267 297.639 317.008C298.156 316.767 298.591 316.328 298.605 316.03C298.623 315.676 298.692 315.637 298.804 315.916C298.899 316.152 299.127 316.345 299.31 316.345C299.493 316.345 299.56 316.21 299.458 316.045C299.219 315.657 301.537 314.061 302.782 313.756C303.366 313.612 303.676 313.348 303.573 313.081C303.375 312.563 304.241 311.727 305.314 311.399C305.732 311.272 306.395 310.714 306.789 310.16C307.182 309.606 307.676 309.153 307.886 309.153C308.43 309.153 309.848 307.749 309.848 307.21C309.848 306.96 310.072 306.756 310.345 306.756C310.975 306.756 312.458 305.283 312.747 304.369C312.868 303.987 313.17 303.674 313.417 303.674C313.901 303.674 314.885 302.371 315.55 300.848C315.777 300.33 316.183 299.906 316.453 299.906C316.724 299.906 317.045 299.508 317.167 299.021C317.289 298.534 317.799 297.725 318.3 297.223C319.291 296.231 320.776 293.641 320.776 292.904C320.776 292.651 321.157 292.081 321.624 291.638C322.09 291.194 322.474 290.593 322.477 290.3C322.481 290.009 322.613 289.623 322.77 289.444C322.929 289.266 323.409 288.048 323.839 286.739C324.268 285.43 324.811 284.168 325.043 283.934C325.718 283.258 327.264 275.729 327.264 273.121C327.264 272.266 327.444 271.734 327.776 271.606C328.201 271.443 328.289 270.505 328.289 266.117C328.289 263.09 328.158 260.907 327.983 261.015C327.576 261.267 327.264 260.388 327.264 258.991C327.264 257.835 326.182 252.056 325.567 249.931C325.381 249.285 325.049 248.646 324.831 248.511C324.464 248.283 323.718 246.571 323.277 244.942C322.897 243.538 322.306 242.373 321.973 242.373C321.784 242.373 321.274 241.486 320.839 240.404C320.405 239.321 319.671 238.05 319.209 237.579C318.747 237.108 318.012 236.183 317.575 235.524C317.138 234.865 316.607 234.363 316.394 234.409C316.181 234.455 315.914 234.123 315.801 233.671C315.688 233.219 315.224 232.5 314.771 232.072C314.317 231.645 313.946 231.091 313.946 230.841C313.946 230.592 313.761 230.387 313.535 230.387C312.945 230.387 310.872 228.291 310.872 227.694C310.872 227.417 310.771 227.293 310.646 227.418C310.522 227.542 309.946 227.282 309.366 226.839C308.786 226.396 307.973 225.927 307.56 225.796C307.147 225.665 306.724 225.296 306.621 224.976C306.517 224.656 305.548 223.982 304.468 223.48C303.388 222.977 302.049 222.173 301.492 221.692C300.935 221.213 300.036 220.723 299.494 220.603C298.952 220.484 298.255 220.131 297.945 219.82C297.634 219.509 296.497 218.953 295.418 218.586C294.339 218.218 293.456 217.833 293.456 217.731C293.456 217.628 293.033 217.513 292.517 217.473C290.221 217.297 288.675 216.928 288.675 216.555C288.675 215.889 282.863 215.31 276.228 215.314C269.648 215.319 264.459 215.87 264.182 216.592C264.09 216.834 263.762 217.034 263.453 217.036C262.95 217.041 259.627 217.828 256.147 218.767C255.443 218.957 254.867 219.32 254.867 219.574C254.867 219.828 254.444 220.117 253.927 220.217C252.079 220.575 249.744 221.572 249.744 222.004C249.744 222.246 249.286 222.604 248.727 222.799C246.565 223.555 244.28 224.75 244.28 225.125C244.28 225.341 243.59 225.843 242.746 226.24C241.902 226.638 241.02 227.272 240.786 227.648C240.551 228.024 240.189 228.332 239.98 228.332C239.771 228.332 239.148 228.766 238.594 229.296C238.041 229.827 237.327 230.361 237.007 230.484C236.687 230.607 236.426 230.874 236.426 231.078C236.426 231.281 236.041 231.804 235.572 232.241C235.102 232.677 234.718 233.286 234.718 233.594C234.718 233.902 234.536 234.154 234.313 234.154C233.713 234.154 232.329 235.561 232.317 236.183C232.303 236.848 231.522 237.921 231.051 237.921C230.629 237.921 229.786 238.896 229.752 239.423C229.702 240.197 229.168 241.003 228.705 241.003C228.444 241.003 228.229 241.273 228.228 241.603C228.228 241.932 227.92 242.706 227.545 243.323C227.17 243.94 226.864 244.641 226.864 244.882C226.864 245.629 226.03 247.162 225.622 247.165C225.408 247.166 225.149 247.592 225.045 248.109C224.941 248.628 224.701 249.668 224.51 250.421C223.839 253.07 223.432 254.886 223.227 256.15C223.113 256.852 222.89 257.347 222.732 257.249C222.573 257.151 222.376 257.424 222.293 257.855C221.674 261.059 221.396 265.041 221.397 270.68L221.4 277.24L220.549 276.844C220.08 276.626 219.696 276.322 219.695 276.168C219.694 276.014 219.308 275.384 218.838 274.766C218.369 274.149 217.985 273.471 217.985 273.26C217.985 273.049 217.688 272.717 217.325 272.522C216.7 272.187 216.426 271.667 216.112 270.225C216.037 269.881 215.726 268.674 215.421 267.544C215.021 266.06 214.872 264.075 214.885 260.402C214.903 255.665 215.179 252.755 215.932 249.394C216.101 248.64 216.324 247.611 216.429 247.106C216.534 246.601 216.826 245.981 217.078 245.729C217.33 245.476 217.89 244.271 218.322 243.051C218.754 241.83 219.278 240.369 219.486 239.802C219.693 239.236 220.209 238.427 220.631 238.004C221.054 237.582 221.4 237 221.4 236.711C221.4 235.94 222.427 234.497 222.976 234.497C223.236 234.497 223.449 234.343 223.449 234.154C223.449 233.966 223.718 233.809 224.046 233.807C224.483 233.803 224.526 233.726 224.208 233.524C223.868 233.307 223.938 232.908 224.526 231.7C224.941 230.849 225.587 230.013 225.961 229.842C226.335 229.671 226.944 228.941 227.312 228.22C227.681 227.499 228.325 226.779 228.743 226.62C229.433 226.356 229.915 225.726 229.808 225.226C229.745 224.932 230.685 224.122 231.826 223.488C232.384 223.178 232.992 222.6 233.177 222.203C233.362 221.807 233.67 221.478 233.86 221.472C234.303 221.459 235.805 220.083 236.273 219.263C236.471 218.916 236.872 218.597 237.163 218.554C237.455 218.511 238.445 217.919 239.365 217.238C240.284 216.557 241.68 215.702 242.466 215.338C243.253 214.974 244.181 214.397 244.529 214.056C245.268 213.331 248.17 211.894 248.896 211.894C249.172 211.894 249.589 211.586 249.823 211.209C250.058 210.833 250.566 210.524 250.953 210.524C251.34 210.524 251.802 210.382 251.981 210.208C252.159 210.034 253.381 209.628 254.696 209.305C256.011 208.982 257.288 208.663 257.535 208.596C257.782 208.529 257.891 208.324 257.777 208.14C257.663 207.956 257.999 207.715 258.524 207.604C259.436 207.412 262.086 206.835 265.519 206.082C266.4 205.888 267.584 205.73 268.148 205.73C268.713 205.73 269.298 205.525 269.449 205.274C269.884 204.546 275.673 204.018 283.211 204.018C290.051 204.018 296.659 204.557 296.332 205.088C296.153 205.378 296.77 205.558 299.091 205.895C302.23 206.35 302.864 206.501 303.189 206.877C303.376 207.093 304.213 207.286 305.048 207.306C306.199 207.332 306.684 207.518 307.053 208.076C307.36 208.54 307.897 208.812 308.503 208.812C309.033 208.812 309.55 208.948 309.653 209.115C309.755 209.282 310.264 209.498 310.783 209.596C312.421 209.906 314.095 210.669 314.888 211.466C315.309 211.89 315.967 212.237 316.352 212.237C316.736 212.237 317.435 212.622 317.904 213.093C318.374 213.564 318.848 213.949 318.958 213.949C319.068 213.949 319.714 214.295 320.394 214.718C321.074 215.14 321.706 215.5 321.8 215.518C322.504 215.648 323.166 216.159 323.166 216.572C323.166 216.844 323.666 217.287 324.276 217.557C325.623 218.152 326.923 219.228 326.923 219.749C326.923 219.959 327.299 220.274 327.759 220.449C328.218 220.624 328.851 221.16 329.164 221.639C329.477 222.118 329.872 222.511 330.04 222.511C330.47 222.511 332.365 224.648 332.377 225.146C332.382 225.371 332.802 225.756 333.31 226.002C333.823 226.25 334.544 227.096 334.932 227.904C335.316 228.705 335.83 229.36 336.075 229.36C336.319 229.36 336.746 229.903 337.022 230.566C337.299 231.23 337.855 232.104 338.259 232.509C339.061 233.313 340.579 236.123 340.581 236.808C340.582 237.044 340.929 237.582 341.351 238.004C342.146 238.799 342.907 240.478 343.216 242.12C343.313 242.641 343.529 243.151 343.695 243.254C343.862 243.357 343.998 243.894 343.998 244.448C343.998 245.046 344.178 245.455 344.441 245.455C344.992 245.455 345.516 246.96 346.053 250.079C346.468 252.495 347.129 255.231 347.83 257.441C348.065 258.179 348.209 261.667 348.207 266.517C348.205 273.818 348.138 274.681 347.298 278.332C346.799 280.498 346.074 283.809 345.687 285.692C345.275 287.697 344.78 289.228 344.491 289.39C344.22 289.542 343.998 289.96 343.998 290.319C343.998 290.677 343.862 291.324 343.696 291.757C343.529 292.189 343.055 293.65 342.641 295.001C342.227 296.353 341.69 297.536 341.447 297.629C341.205 297.722 340.675 298.896 340.268 300.237C339.862 301.577 339.267 302.944 338.947 303.274C338.256 303.982 336.826 306.905 336.826 307.609C336.826 307.88 336.521 308.265 336.147 308.466C335.774 308.666 335.367 309.249 335.244 309.762C335.12 310.274 334.734 311.103 334.386 311.603C334.038 312.103 333.753 312.758 333.753 313.058C333.753 313.359 333.533 313.605 333.265 313.605C332.997 313.605 332.382 314.444 331.898 315.47C331.414 316.496 330.705 317.555 330.321 317.824C329.594 318.335 328.289 320.62 328.289 321.382C328.289 321.625 328.066 321.824 327.794 321.824C327.253 321.824 325.557 323.868 325.557 324.521C325.557 324.745 325.294 325.029 324.973 325.152C324.24 325.434 322.85 326.994 322.836 327.55C322.83 327.78 322.364 328.309 321.8 328.727C321.237 329.145 320.776 329.66 320.776 329.872C320.776 330.357 318.987 332.098 318.489 332.098C318.285 332.098 318.028 332.455 317.919 332.891C317.81 333.328 317.294 333.905 316.772 334.175C315.689 334.736 315.295 335.104 314.766 336.05C314.56 336.419 314.097 336.875 313.739 337.063C312.37 337.782 311.489 338.562 311.686 338.882C311.799 339.065 311.36 339.467 310.711 339.776C310.062 340.085 309.314 340.648 309.049 341.028C308.783 341.407 307.856 342.17 306.987 342.722C306.119 343.274 305.408 343.961 305.408 344.248C305.408 344.534 305.168 344.769 304.873 344.769C304.579 344.769 303.849 345.136 303.251 345.585C302.653 346.034 301.818 346.507 301.396 346.635C300.973 346.764 300.627 347.07 300.627 347.315C300.627 347.559 299.859 348.08 298.92 348.471C297.907 348.893 297.212 349.399 297.212 349.716C297.212 350.008 297.003 350.248 296.748 350.248C296.014 350.248 292.667 352.054 291.828 352.902C291.409 353.326 290.789 353.673 290.451 353.673C290.113 353.673 289.69 353.8 289.512 353.956C289.333 354.111 288.534 354.444 287.736 354.695C286.937 354.947 286.284 355.338 286.284 355.565C286.284 355.792 285.385 356.307 284.286 356.709C283.186 357.111 282.164 357.44 282.013 357.44C281.862 357.44 281.263 357.801 280.682 358.243C280.101 358.685 279.241 359.136 278.771 359.247C278.302 359.357 277.303 359.622 276.552 359.835C275.8 360.049 274.755 360.329 274.23 360.459C273.704 360.588 273.29 360.834 273.31 361.007C273.356 361.41 271.634 361.948 267.16 362.929C265.188 363.361 263.421 363.906 263.233 364.14C263.045 364.373 262.354 364.648 261.697 364.751C257.199 365.451 253.243 366.026 250.598 366.364C248.907 366.58 247.421 366.923 247.295 367.126C246.985 367.626 235.379 368.366 227.888 368.364C220.053 368.361 207.765 367.622 207.461 367.135C207.332 366.93 205.537 366.583 203.471 366.364C201.405 366.144 198.255 365.727 196.47 365.436C194.686 365.145 192.69 364.824 192.034 364.722C191.379 364.62 190.687 364.351 190.497 364.124C190.308 363.896 189.23 363.512 188.104 363.269C186.977 363.026 185.396 362.616 184.591 362.359C183.786 362.102 182.901 361.892 182.624 361.892C182.347 361.892 181.858 361.584 181.536 361.207C181.214 360.83 180.727 360.522 180.452 360.522C179.771 360.522 175.914 359.149 175.368 358.712C174.632 358.123 171.797 356.755 171.312 356.755C171.062 356.755 170.512 356.408 170.089 355.984C169.667 355.561 169.244 355.21 169.15 355.205C169.056 355.2 167.942 354.699 166.674 354.092C165.341 353.454 164.369 352.772 164.369 352.474C164.369 352.192 164.115 351.96 163.804 351.96C163.493 351.96 162.735 351.575 162.119 351.104C161.504 350.633 160.908 350.248 160.795 350.248C160.682 350.248 160.049 349.705 159.387 349.041C158.725 348.378 158.045 347.92 157.876 348.025C157.707 348.13 157.323 347.838 157.022 347.378C156.721 346.917 155.985 346.296 155.385 345.998C153.936 345.278 153.275 344.723 153.004 343.998C152.881 343.669 152.571 343.399 152.317 343.399C152.061 343.399 151.492 343.014 151.051 342.543C150.61 342.072 149.968 341.687 149.626 341.687C149.283 341.687 149.002 341.479 149.002 341.226C149.002 340.973 148.677 340.472 148.28 340.113C147.883 339.754 147.425 339.114 147.264 338.69C147.102 338.266 146.736 337.92 146.451 337.92C146.166 337.92 145.482 337.296 144.931 336.533C144.381 335.771 143.523 334.826 143.025 334.434C142.528 334.041 141.982 333.355 141.813 332.909C141.644 332.463 141.303 332.098 141.054 332.098C140.805 332.098 140.225 331.464 139.765 330.689C139.304 329.914 138.62 328.953 138.245 328.555C137.271 327.523 135.369 324.454 135.536 324.184C135.613 324.059 135.409 323.886 135.082 323.8C134.755 323.714 134.132 322.926 133.696 322.049C133.26 321.172 132.768 320.454 132.604 320.454C132.324 320.454 130.22 316.372 130.22 315.83C130.22 315.695 129.895 315.247 129.499 314.834C128.834 314.142 128.421 313.254 127.37 310.266C127.155 309.654 126.815 309.153 126.614 309.153C126.414 309.153 125.798 307.736 125.247 306.004C124.695 304.273 124.009 302.616 123.722 302.323C123.435 302.03 122.832 300.326 122.381 298.537C121.931 296.747 121.377 295.129 121.151 294.941C120.925 294.752 120.632 293.982 120.498 293.229C120.365 292.475 120.134 291.242 119.985 290.489C119.836 289.735 119.529 287.963 119.303 286.551C119.077 285.138 118.661 283.521 118.378 282.958C117.704 281.618 116.963 274.571 116.684 266.859C116.386 258.632 117.351 243.626 118.212 243.092C118.398 242.977 118.711 241.805 118.908 240.488C119.104 239.17 119.512 236.783 119.813 235.182C120.115 233.581 120.443 231.731 120.543 231.072C120.643 230.413 120.921 229.716 121.162 229.524C121.402 229.332 121.938 227.791 122.353 226.099C122.768 224.408 123.312 222.863 123.562 222.665C123.811 222.467 124.266 221.389 124.572 220.268C124.878 219.147 125.337 217.468 125.592 216.537C125.847 215.606 126.267 214.682 126.525 214.482C126.782 214.283 127.364 212.994 127.817 211.618C128.27 210.242 128.765 209.038 128.918 208.944C129.07 208.849 129.195 208.558 129.195 208.296C129.195 208.034 129.579 207.404 130.049 206.896C130.518 206.388 130.903 205.691 130.903 205.348C130.903 205.004 131.21 204.175 131.586 203.504C131.961 202.833 132.269 202.049 132.269 201.761C132.269 201.473 132.421 201.332 132.609 201.448C132.795 201.564 133.118 201.227 133.325 200.698C134.156 198.573 134.789 197.511 135.225 197.511C135.477 197.511 135.684 197.337 135.684 197.125C135.684 196.489 137.802 192.374 138.129 192.374C138.296 192.374 138.586 191.969 138.774 191.473C138.962 190.978 139.419 190.145 139.79 189.622C140.161 189.1 140.464 188.445 140.464 188.166C140.464 187.887 140.75 187.585 141.098 187.493C141.446 187.402 142.022 186.695 142.379 185.921C142.734 185.148 143.189 184.511 143.388 184.506C143.837 184.495 145.241 182.632 145.256 182.028C145.271 181.417 146.092 180.388 146.564 180.388C146.778 180.388 146.959 180.196 146.967 179.96C146.974 179.725 147.436 178.998 147.991 178.346C148.547 177.694 149.002 177.039 149.002 176.89C149.002 176.741 149.615 176.063 150.365 175.384C151.115 174.705 151.659 174.036 151.574 173.898C151.489 173.76 151.882 173.305 152.448 172.885C153.013 172.466 153.623 171.733 153.804 171.257C153.985 170.78 154.409 170.318 154.747 170.229C155.084 170.141 155.857 169.308 156.463 168.379C157.07 167.45 157.725 166.69 157.919 166.69C158.333 166.69 159.242 165.835 159.258 165.43C159.277 164.971 160.521 163.607 160.921 163.607C161.123 163.607 161.637 163.076 162.061 162.427C162.485 161.777 163.101 161.175 163.429 161.089C163.756 161.003 164.126 160.649 164.249 160.301C164.583 159.36 165.465 158.43 166.342 158.094C166.769 157.93 167.223 157.524 167.35 157.192C167.652 156.402 169.024 155.034 169.269 155.279C169.507 155.518 170.312 154.721 170.599 153.962C170.717 153.649 171.246 153.186 171.775 152.933C172.304 152.681 172.884 152.137 173.065 151.724C173.246 151.311 173.784 150.78 174.261 150.543C175.472 149.939 176.663 148.843 176.663 148.331C176.663 148.094 177.009 147.795 177.432 147.666C177.854 147.536 178.764 146.833 179.454 146.102C180.144 145.37 180.85 144.772 181.023 144.772C181.197 144.772 181.617 144.464 181.957 144.087C182.296 143.71 182.791 143.402 183.054 143.402C183.318 143.402 183.439 143.248 183.323 143.06C183.206 142.871 183.236 142.717 183.388 142.717C183.54 142.717 184.11 142.331 184.656 141.861C185.202 141.39 185.83 141.005 186.05 141.005C186.272 141.005 186.947 140.389 187.55 139.635C188.154 138.882 188.94 138.265 189.295 138.265C189.652 138.265 190.166 137.947 190.438 137.558C190.94 136.838 192.331 135.926 194.336 135.001C194.947 134.72 195.446 134.274 195.446 134.011C195.446 133.747 196.137 133.196 196.983 132.786C197.828 132.376 198.519 131.849 198.519 131.615C198.519 131.381 198.942 130.989 199.458 130.744C201.907 129.583 203.06 128.888 204.067 127.966C204.668 127.415 205.326 126.964 205.528 126.964C206.294 126.964 207.65 126.113 207.957 125.439C208.133 125.054 208.481 124.783 208.731 124.837C208.981 124.892 209.546 124.699 209.987 124.409C210.428 124.119 211.007 123.882 211.274 123.882C211.54 123.882 211.832 123.612 211.922 123.283C212.079 122.708 213.116 122.075 215.509 121.09C216.119 120.838 216.619 120.439 216.619 120.203C216.619 119.966 216.888 119.769 217.216 119.765C217.545 119.761 218.198 119.456 218.668 119.088C219.137 118.719 219.706 118.414 219.932 118.41C220.73 118.396 222.083 117.602 222.083 117.149C222.083 116.897 222.331 116.69 222.634 116.69C222.937 116.69 223.744 116.397 224.427 116.039C225.11 115.681 226.168 115.2 226.778 114.97C227.389 114.74 227.888 114.34 227.888 114.081C227.888 113.808 228.241 113.608 228.722 113.608C229.18 113.608 229.638 113.474 229.739 113.31C229.84 113.146 230.375 112.921 230.929 112.81C231.481 112.699 232.226 112.294 232.583 111.91C232.94 111.526 234.373 110.816 235.768 110.332C237.163 109.848 238.534 109.173 238.816 108.832C239.098 108.491 239.713 108.131 240.182 108.033C241.765 107.7 245.661 106.108 246.192 105.576C246.481 105.285 247.13 104.956 247.634 104.844C248.137 104.732 249.033 104.423 249.625 104.158C250.217 103.894 250.857 103.677 251.048 103.677C251.238 103.677 251.446 103.523 251.509 103.335C251.624 102.987 255.723 101.361 257.232 101.065C257.688 100.975 258.226 100.71 258.428 100.476C258.805 100.037 259.366 99.8301 263.746 98.5181C265.154 98.0959 266.46 97.5664 266.648 97.3414C266.836 97.1164 267.912 96.6918 269.039 96.3976C274.285 95.0288 275.159 94.7487 275.693 94.2641C276.007 93.9788 276.513 93.7456 276.819 93.7456C277.124 93.7456 277.726 93.6089 278.158 93.4418C278.589 93.2747 279.787 92.9425 280.82 92.7038C281.853 92.4651 282.852 92.0805 283.04 91.8497C283.228 91.6186 284.534 91.1734 285.943 90.86C287.352 90.5467 289.06 90.1432 289.739 89.9631C290.418 89.7833 291.283 89.6361 291.661 89.6361C292.039 89.6361 292.538 89.4066 292.77 89.1261C293.002 88.8457 293.335 88.7049 293.509 88.8131C293.684 88.9214 294.026 88.845 294.269 88.6429C294.638 88.3351 298.855 87.4118 304.469 86.4091C305.174 86.2834 305.75 86.0443 305.75 85.8779C305.75 85.7118 306.634 85.4026 307.713 85.1913C308.793 84.98 310.419 84.6605 311.325 84.4817C312.232 84.3029 313.295 84.1567 313.689 84.1567C314.082 84.1567 314.658 83.9269 314.967 83.6464C315.284 83.3584 317.381 82.8365 319.775 82.4492C322.11 82.0718 324.762 81.6078 325.668 81.4187C326.575 81.2294 327.842 81.0746 328.485 81.0746C329.275 81.0746 329.655 80.9146 329.655 80.5821C329.655 80.3112 329.923 80.1075 330.252 80.1294C330.581 80.151 331.849 79.9975 333.07 79.7886C334.291 79.5797 336.673 79.2332 338.363 79.0188C340.053 78.8044 342.371 78.4856 343.513 78.3106C344.656 78.1356 346.154 77.9924 346.843 77.9924C347.668 77.9924 348.096 77.8342 348.096 77.5291C348.096 77.2034 348.833 76.9959 350.572 76.8315C351.933 76.7024 354.277 76.4575 355.779 76.2866C357.282 76.1161 361.508 75.7106 365.171 75.386C368.911 75.0545 371.936 74.6332 372.073 74.425C372.206 74.2209 373.82 73.9648 375.658 73.8559C394.739 72.723 399.863 72.3381 400.076 72.0196C400.233 71.785 405.296 71.5192 414.419 71.2665C427.917 70.8929 444.793 70.9128 461.644 71.322ZM438.934 72.3418C438.934 72.436 439.011 72.5131 439.105 72.5131C439.199 72.5131 439.276 72.436 439.276 72.3418C439.276 72.2477 439.199 72.1706 439.105 72.1706C439.011 72.1706 438.934 72.2477 438.934 72.3418ZM436.544 74.7391C436.544 74.8332 436.621 74.9103 436.715 74.9103C436.808 74.9103 436.885 74.8332 436.885 74.7391C436.885 74.6449 436.808 74.5678 436.715 74.5678C436.621 74.5678 436.544 74.6449 436.544 74.7391ZM434.153 77.1363C434.153 77.2305 434.23 77.3075 434.324 77.3075C434.418 77.3075 434.495 77.2305 434.495 77.1363C434.495 77.0421 434.418 76.965 434.324 76.965C434.23 76.965 434.153 77.0421 434.153 77.1363ZM431.763 79.5335C431.763 79.6277 431.84 79.7047 431.934 79.7047C432.027 79.7047 432.104 79.6277 432.104 79.5335C432.104 79.4393 432.027 79.3623 431.934 79.3623C431.84 79.3623 431.763 79.4393 431.763 79.5335ZM430.055 81.2458C430.055 81.34 430.132 81.417 430.226 81.417C430.32 81.417 430.397 81.34 430.397 81.2458C430.397 81.1516 430.32 81.0746 430.226 81.0746C430.132 81.0746 430.055 81.1516 430.055 81.2458ZM294.822 89.8073C294.822 89.9015 294.899 89.9785 294.993 89.9785C295.087 89.9785 295.163 89.9015 295.163 89.8073C295.163 89.7131 295.087 89.6361 294.993 89.6361C294.899 89.6361 294.822 89.7131 294.822 89.8073ZM295.505 90.4922C295.505 90.5864 295.582 90.6634 295.676 90.6634C295.77 90.6634 295.846 90.5864 295.846 90.4922C295.846 90.398 295.77 90.321 295.676 90.321C295.582 90.321 295.505 90.398 295.505 90.4922ZM297.212 92.2045C297.212 92.2987 297.289 92.3757 297.383 92.3757C297.477 92.3757 297.554 92.2987 297.554 92.2045C297.554 92.1103 297.477 92.0333 297.383 92.0333C297.289 92.0333 297.212 92.1103 297.212 92.2045ZM297.895 92.8894C297.895 92.9836 297.972 93.0607 298.066 93.0607C298.16 93.0607 298.237 92.9836 298.237 92.8894C298.237 92.7953 298.16 92.7182 298.066 92.7182C297.972 92.7182 297.895 92.7953 297.895 92.8894ZM300.286 95.2867C300.286 95.3808 300.363 95.4579 300.457 95.4579C300.551 95.4579 300.627 95.3808 300.627 95.2867C300.627 95.1925 300.551 95.1154 300.457 95.1154C300.363 95.1154 300.286 95.1925 300.286 95.2867ZM301.993 96.999C301.993 97.0931 302.07 97.1702 302.164 97.1702C302.258 97.1702 302.335 97.0931 302.335 96.999C302.335 96.9048 302.258 96.8277 302.164 96.8277C302.07 96.8277 301.993 96.9048 301.993 96.999ZM302.676 97.6839C302.676 97.7781 302.753 97.8551 302.847 97.8551C302.941 97.8551 303.018 97.7781 303.018 97.6839C303.018 97.5897 302.941 97.5126 302.847 97.5126C302.753 97.5126 302.676 97.5897 302.676 97.6839ZM250.769 103.163C250.769 103.257 250.692 103.334 250.598 103.334C250.504 103.334 250.427 103.257 250.427 103.163C250.427 103.069 250.504 102.992 250.598 102.992C250.692 102.992 250.769 103.069 250.769 103.163ZM306.262 156.888C306.463 157.13 309.003 157.549 312.409 157.901C315.602 158.231 319.137 158.639 320.264 158.806C321.39 158.974 323.196 159.221 324.276 159.353C325.584 159.515 326.24 159.751 326.24 160.06C326.24 160.345 326.623 160.525 327.227 160.525C328.961 160.525 334.862 161.883 335.254 162.371C335.616 162.824 336.489 163.104 338.704 163.48C339.268 163.576 340.036 163.78 340.412 163.934C340.788 164.088 341.748 164.41 342.546 164.651C343.345 164.891 343.998 165.276 343.998 165.507C343.998 165.738 344.42 166.003 344.937 166.095C346.774 166.424 350.329 167.9 351.066 168.641C351.479 169.055 352.432 169.559 353.186 169.763C353.939 169.966 354.648 170.283 354.761 170.466C354.873 170.649 355.199 170.799 355.484 170.799C355.769 170.799 356.461 171.258 357.021 171.82C357.58 172.381 358.145 172.813 358.275 172.78C358.876 172.623 359.992 173.286 360.15 173.893C360.247 174.263 360.595 174.566 360.923 174.566C361.525 174.566 363.338 175.774 364.728 177.101C366.079 178.391 366.5 178.676 367.059 178.676C367.649 178.676 368.188 179.158 368.789 180.223C368.994 180.588 369.522 180.971 369.962 181.075C370.401 181.179 371.01 181.714 371.313 182.264C371.791 183.129 372.785 183.941 374.284 184.693C374.507 184.805 374.627 185.077 374.552 185.296C374.476 185.516 375.028 186.122 375.779 186.642C376.529 187.162 377.288 187.971 377.466 188.44C377.644 188.908 377.997 189.292 378.25 189.292C378.839 189.292 380.051 190.612 380.339 191.567C380.461 191.97 380.861 192.379 381.228 192.475C381.595 192.571 382.057 193.076 382.255 193.598C382.452 194.119 383.107 195.02 383.711 195.6C384.313 196.18 385.031 197.091 385.306 197.624C385.58 198.156 386.195 198.797 386.672 199.048C387.148 199.298 387.463 199.556 387.369 199.62C387.07 199.827 389.173 203.675 389.586 203.675C389.805 203.675 390.149 204.022 390.35 204.446C391.338 206.53 392.149 208.497 392.149 208.808C392.149 208.999 392.356 209.155 392.61 209.155C393.045 209.155 394.884 212.956 394.882 213.85C394.881 214.078 395.176 214.54 395.536 214.877C396.111 215.415 396.86 217.065 397.524 219.257C397.638 219.634 397.919 220.096 398.147 220.285C398.376 220.473 399.069 222.399 399.689 224.565C400.308 226.731 401.004 228.658 401.236 228.846C401.677 229.205 403.418 237.318 403.418 239.014C403.418 239.555 403.628 240.078 403.884 240.177C404.341 240.352 404.618 241.978 405.458 249.417C405.913 253.445 405.911 270.22 405.455 274.499C404.692 281.666 404.442 283.176 403.936 283.683C403.652 283.968 403.418 284.643 403.418 285.182C403.418 286.059 401.941 294.023 401.497 295.545C401.4 295.877 401.203 296.077 401.06 295.988C400.833 295.847 399.231 301.44 398.734 304.111C398.637 304.634 398.269 305.217 397.917 305.406C397.531 305.613 397.19 306.294 397.058 307.117C396.938 307.868 396.707 308.566 396.544 308.667C396.381 308.768 396.247 309.193 396.247 309.611C396.247 310.029 395.96 310.617 395.609 310.918C395.258 311.22 394.698 312.337 394.364 313.402C394.03 314.468 393.625 315.42 393.465 315.52C393.305 315.619 393.173 315.999 393.173 316.365C393.173 316.731 392.943 317.029 392.661 317.029C392.38 317.029 392.145 317.068 392.14 317.115C392.135 317.162 391.767 318.272 391.323 319.582C390.878 320.892 390.214 322.279 389.849 322.664C389.483 323.05 388.66 324.481 388.02 325.846C387.38 327.211 386.701 328.328 386.512 328.329C386.323 328.33 385.816 329.101 385.386 330.043C384.955 330.985 384.391 331.755 384.133 331.755C383.875 331.755 383.491 332.282 383.279 332.926C383.067 333.571 382.671 334.283 382.399 334.509C382.127 334.736 381.904 335.193 381.904 335.525C381.904 335.857 381.507 336.389 381.022 336.708C380.537 337.027 379.921 337.812 379.654 338.453C379.387 339.094 378.785 339.87 378.317 340.178C377.848 340.486 377.465 340.931 377.465 341.166C377.465 341.72 376.078 343.492 375.835 343.249C375.522 342.935 374.762 343.763 374.939 344.226C375.031 344.465 374.484 345.224 373.724 345.912C372.964 346.601 372.342 347.292 372.342 347.448C372.342 347.604 371.971 348.081 371.517 348.509C371.063 348.936 370.598 349.663 370.483 350.123C370.368 350.584 370.12 350.866 369.932 350.75C369.55 350.513 368.385 351.737 367.91 352.874C367.739 353.283 367.172 353.822 366.651 354.073C366.13 354.324 365.522 354.892 365.302 355.335C365.081 355.779 364.564 356.319 364.151 356.534C363.551 356.848 362.863 357.755 362.214 359.092C362.184 359.153 361.923 359.238 361.633 359.281C360.947 359.382 359.707 360.512 359.707 361.036C359.707 361.26 359.399 361.722 359.024 362.063C358.648 362.404 358.341 362.555 358.341 362.399C358.341 362.243 357.956 362.477 357.487 362.919C357.017 363.362 356.633 363.928 356.633 364.177C356.633 364.427 356.461 364.631 356.251 364.631C356.041 364.631 355.344 365.094 354.703 365.659C354.061 366.224 353.349 366.689 353.121 366.691C352.86 366.695 352.896 366.82 353.218 367.029C353.673 367.324 353.673 367.363 353.218 367.377C352.558 367.399 351.382 368.388 350.866 369.354C350.644 369.77 350.264 370.111 350.021 370.111C349.779 370.111 349.22 370.496 348.779 370.967C348.337 371.438 347.811 371.823 347.609 371.823C347.407 371.823 346.813 372.362 346.288 373.022C345.764 373.681 345.058 374.22 344.719 374.22C344.079 374.22 342.841 375.344 343.145 375.649C343.241 375.744 342.627 376.18 341.78 376.616C340.934 377.053 340.241 377.612 340.241 377.858C340.241 378.236 339.094 379.123 338.534 379.178C338.44 379.188 337.869 379.565 337.266 380.016C336.663 380.467 336.265 381.004 336.382 381.21C336.499 381.415 336.474 381.474 336.327 381.341C336.179 381.208 335.578 381.462 334.991 381.905C334.404 382.349 333.616 382.767 333.24 382.835C332.865 382.902 332.409 383.294 332.228 383.707C332.047 384.119 331.509 384.637 331.033 384.857C330.557 385.078 329.936 385.4 329.655 385.574C329.373 385.747 328.72 386.071 328.203 386.294C327.687 386.517 327.264 386.885 327.264 387.112C327.264 387.339 326.502 387.883 325.571 388.321C324.639 388.759 323.871 389.286 323.863 389.492C323.85 389.834 323.324 390.145 320.719 391.35C320.218 391.581 319.734 392.06 319.641 392.413C319.549 392.767 319.181 393.056 318.824 393.056C318.467 393.056 317.876 393.282 317.511 393.558C317.147 393.835 316.591 394.066 316.277 394.072C315.963 394.078 315.245 394.545 314.681 395.11C314.118 395.675 313.483 396.138 313.271 396.138C312.643 396.138 310.068 397.63 309.579 398.278C309.33 398.608 308.897 398.877 308.617 398.877C308.337 398.877 307.471 399.186 306.694 399.562C305.916 399.939 305.078 400.247 304.832 400.247C304.585 400.247 304.384 400.441 304.384 400.677C304.384 400.914 303.884 401.322 303.274 401.584C302.664 401.846 301.559 402.345 300.819 402.695C300.08 403.044 299.273 403.329 299.026 403.329C298.78 403.329 298.577 403.522 298.576 403.757C298.573 404.189 297.081 405.042 296.33 405.042C296.107 405.042 295.484 405.272 294.946 405.553C294.408 405.835 293.704 406.066 293.382 406.067C293.06 406.068 292.647 406.35 292.464 406.694C292.27 407.057 291.229 407.582 289.976 407.949C288.791 408.295 287.623 408.822 287.382 409.119C286.949 409.651 284.853 410.489 281.845 411.333C280.946 411.585 280.308 411.967 280.308 412.251C280.308 412.519 280.001 412.788 279.625 412.85C279.25 412.912 277.758 413.339 276.311 413.797C274.864 414.255 273.443 414.631 273.152 414.631C272.862 414.631 272.624 414.833 272.624 415.08C272.624 415.351 271.503 415.847 269.807 416.326C268.257 416.764 266.836 417.301 266.648 417.519C266.301 417.922 259.11 420.11 258.132 420.11C257.839 420.11 257.599 420.303 257.599 420.538C257.598 420.8 256.244 421.276 254.098 421.768C252.173 422.209 250.245 422.71 249.813 422.881C249.382 423.052 248.742 423.192 248.39 423.192C248.039 423.192 247.693 423.369 247.622 423.585C247.487 423.99 242.893 425.189 238.577 425.946C237.225 426.184 236.149 426.54 236.187 426.739C236.224 426.938 235.64 427.206 234.889 427.335C230.396 428.105 227.205 428.871 227.205 429.178C227.205 429.373 223.998 430.048 220.055 430.682C215.643 431.392 212.843 431.994 212.744 432.255C212.65 432.498 211.594 432.772 210.246 432.903C208.962 433.027 206.297 433.345 204.325 433.61C200.805 434.082 200.728 434.078 200.118 433.369L199.497 432.648L199.715 433.515C199.926 434.358 199.879 434.385 198.116 434.439C195.897 434.507 194.421 434.797 194.421 435.166C194.421 435.508 191.979 435.812 180.436 436.907C178.473 437.093 176.777 437.39 176.669 437.566C176.489 437.858 166.811 438.647 151.563 439.613C148.37 439.815 143.529 439.979 140.806 439.977C137.805 439.974 134.8 440.175 133.178 440.486C131.046 440.895 127.382 441 115.192 441C104.08 441 99.8477 440.893 99.7541 440.612C99.6643 440.342 96.5911 440.14 89.7366 439.953C84.2982 439.805 78.9264 439.594 77.7995 439.484C76.6725 439.374 74.0601 439.21 71.994 439.12C62.5792 438.711 52.2089 437.888 51.9907 437.534C51.863 437.326 50.1644 437.033 48.2161 436.882C37.7256 436.066 32.4505 435.469 32.0318 435.049C31.76 434.776 30.2653 434.512 28.2255 434.376C22.85 434.017 11.3025 432.527 11.0744 432.163C10.9597 431.98 8.4838 431.49 5.57252 431.075C2.66125 430.659 0.156356 430.203 0.005755 430.06C-0.144846 429.918 2.67901 429.717 6.28079 429.615C10.1763 429.504 12.9171 429.287 13.0459 429.078C13.1903 428.844 24.8935 428.69 48.3483 428.614C67.6457 428.551 83.4342 428.621 83.4342 428.769C83.4342 428.917 83.761 428.863 84.1609 428.648C84.5963 428.414 88.3231 428.131 93.4668 427.941C109.043 427.364 112.409 427.149 112.857 426.7C113.109 426.447 114.19 426.275 115.518 426.275C116.748 426.275 119.368 426.127 121.341 425.946C123.313 425.765 126.924 425.46 129.366 425.267C141.252 424.331 143.372 424.09 143.64 423.645C143.792 423.393 144.507 423.192 145.252 423.192C145.989 423.192 150.449 422.729 155.165 422.163C161.214 421.437 163.889 420.983 164.249 420.622C164.53 420.34 165.171 420.11 165.674 420.109C166.468 420.108 170.186 419.587 177.827 418.404C178.937 418.233 179.94 417.938 180.056 417.749C180.27 417.401 187.503 416 189.084 416C189.559 416 190.087 415.751 190.257 415.447C190.46 415.083 191.543 414.723 193.432 414.393C195.009 414.118 196.991 413.742 197.836 413.557C198.681 413.373 199.911 413.139 200.568 413.037C201.226 412.935 201.917 412.666 202.105 412.44C202.293 412.214 203.369 411.834 204.495 411.597C205.622 411.359 207.006 411.036 207.569 410.879C208.132 410.722 209.573 410.387 210.769 410.135C211.966 409.883 213.019 409.481 213.111 409.243C213.202 409.004 213.518 408.809 213.814 408.809C214.109 408.809 214.822 408.665 215.399 408.49C215.976 408.314 217.139 407.98 217.985 407.746C218.83 407.513 219.675 407.152 219.863 406.944C220.051 406.736 221.05 406.363 222.083 406.114C223.116 405.866 224.422 405.529 224.985 405.366C225.549 405.203 226.74 404.875 227.632 404.638C228.524 404.401 229.254 404.01 229.254 403.768C229.254 403.527 229.542 403.329 229.894 403.329C230.246 403.329 231.207 403.086 232.028 402.787C232.85 402.489 234.354 402.022 235.371 401.75C236.387 401.477 237.386 401.052 237.59 400.804C237.996 400.313 238.924 399.946 242.06 399.041C243.187 398.716 244.34 398.193 244.622 397.879C244.903 397.565 246.056 397.018 247.183 396.662C248.31 396.307 249.462 395.758 249.744 395.443C250.026 395.127 251.399 394.51 252.795 394.071C254.192 393.631 255.576 393.03 255.872 392.735C256.167 392.441 257.022 391.947 257.772 391.639C258.522 391.33 259.824 390.791 260.665 390.44C261.506 390.089 262.313 389.841 262.458 389.888C262.603 389.935 262.721 389.75 262.721 389.478C262.721 389.184 263.555 388.678 264.77 388.234C265.897 387.821 266.819 387.293 266.819 387.058C266.819 386.824 267.241 386.475 267.758 386.282C271.565 384.865 272.624 384.355 272.624 383.941C272.624 383.68 272.794 383.467 273.002 383.467C273.209 383.467 274.144 383.081 275.079 382.611C276.014 382.14 277.001 381.754 277.274 381.754C277.546 381.754 277.854 381.532 277.957 381.26C278.176 380.69 281.886 378.672 282.717 378.672C283.024 378.672 283.353 378.373 283.448 378.007C283.549 377.62 284.036 377.25 284.613 377.123C285.158 377.003 286.026 376.49 286.542 375.983C287.058 375.476 288.479 374.571 289.699 373.972C290.92 373.374 292.112 372.568 292.349 372.182C292.585 371.796 293.01 371.481 293.293 371.481C294.032 371.481 296.179 370.018 296.184 369.511C296.186 369.276 296.476 369.083 296.829 369.083C297.182 369.083 297.661 368.852 297.895 368.57C298.129 368.287 298.623 368.056 298.994 368.056C299.385 368.056 299.744 367.762 299.85 367.354C299.952 366.964 300.732 366.296 301.611 365.848C302.479 365.404 303.534 364.641 303.955 364.152C304.376 363.662 304.886 363.262 305.087 363.262C305.289 363.262 305.957 362.876 306.573 362.405C307.189 361.935 307.87 361.549 308.087 361.549C308.304 361.549 308.482 361.382 308.482 361.176C308.482 360.716 309.87 359.522 310.422 359.506C310.644 359.5 311.154 359.033 311.555 358.468C311.956 357.903 312.624 357.356 313.04 357.251C313.456 357.146 314.313 356.452 314.944 355.709C315.575 354.966 316.286 354.358 316.525 354.358C316.764 354.358 317.32 353.934 317.762 353.416C318.204 352.898 319.102 352.072 319.756 351.58C321.624 350.177 324.191 347.651 324.191 347.217C324.191 347.001 324.376 346.824 324.601 346.824C325.161 346.824 327.264 344.742 327.264 344.188C327.264 343.942 327.471 343.741 327.724 343.741C327.976 343.741 328.476 343.415 328.833 343.017C329.191 342.619 329.83 342.16 330.252 341.998C330.675 341.836 331.021 341.496 331.021 341.241C331.021 340.987 331.405 340.417 331.874 339.974C332.344 339.532 332.728 338.966 332.728 338.716C332.728 338.466 332.9 338.262 333.11 338.262C333.606 338.262 335.448 336.168 335.455 335.597C335.458 335.356 335.729 335.055 336.058 334.929C336.701 334.682 337.821 333.477 337.839 333.013C337.846 332.857 338.465 332.154 339.217 331.452C339.968 330.749 340.583 329.991 340.583 329.766C340.583 329.542 340.922 329.018 341.336 328.602C342.001 327.936 344.339 324.659 344.339 324.394C344.339 324.339 344.8 323.799 345.364 323.194C345.927 322.589 346.388 321.869 346.388 321.594C346.388 321.319 346.849 320.706 347.413 320.23C347.976 319.755 348.437 319.161 348.437 318.91C348.437 318.249 349.573 316.35 349.974 316.341C350.162 316.336 350.677 315.449 351.119 314.37C352.301 311.483 352.62 310.865 352.926 310.865C353.267 310.865 354.298 308.596 355.143 305.988C355.493 304.906 355.934 304.02 356.123 304.018C356.55 304.015 357.117 302.681 357.69 300.335C357.931 299.346 358.299 298.537 358.507 298.537C358.97 298.537 359.424 297.255 360.388 293.229C360.793 291.533 361.323 289.915 361.565 289.633C361.807 289.35 362.095 288.58 362.206 287.92C362.317 287.261 362.575 285.797 362.779 284.667C362.984 283.537 363.36 280.781 363.616 278.543C363.914 275.934 364.246 274.372 364.541 274.189C364.904 273.964 365 272.254 365 266.003C365 260.439 364.884 258.029 364.609 257.857C364.394 257.723 364.035 255.917 363.812 253.846C363.266 248.767 361.969 242.186 361.531 242.27C361.336 242.308 360.985 241.268 360.752 239.96C360.519 238.651 360.188 237.494 360.017 237.388C359.846 237.283 359.701 236.781 359.695 236.274C359.688 235.768 359.474 234.975 359.219 234.514C358.964 234.052 358.833 233.475 358.926 233.23C359.02 232.985 358.874 232.784 358.603 232.784C358.065 232.784 357.316 231.41 357.316 230.421C357.316 230.081 356.932 229.386 356.462 228.879C355.993 228.37 355.609 227.794 355.609 227.597C355.609 227.4 355.386 226.83 355.115 226.33C354.843 225.83 354.365 224.844 354.051 224.137C353.738 223.431 353.269 222.853 353.008 222.853C352.748 222.853 352.532 222.583 352.528 222.254C352.524 221.924 352.22 221.269 351.852 220.798C351.485 220.327 351.176 219.711 351.166 219.428C351.142 218.768 350.348 217.716 349.874 217.716C349.672 217.716 349.404 217.369 349.277 216.946C349.15 216.522 348.554 215.636 347.953 214.976C347.351 214.317 346.427 213.186 345.9 212.463C345.373 211.74 344.27 210.528 343.449 209.77C342.629 209.011 342.042 208.253 342.145 208.085C342.249 207.917 342.055 207.678 341.714 207.553C341.374 207.428 340.661 206.967 340.13 206.528C339.599 206.089 338.982 205.73 338.759 205.73C338.536 205.73 338.202 205.383 338.017 204.959C337.832 204.536 336.963 203.823 336.087 203.377C335.211 202.93 334.418 202.276 334.326 201.923C334.234 201.57 333.876 201.19 333.529 201.077C332.174 200.639 331.362 200.115 331.362 199.679C331.362 199.428 331.207 199.223 331.017 199.223C330.827 199.223 330.021 198.933 329.224 198.579C328.428 198.224 327.277 197.743 326.667 197.51C326.056 197.276 325.555 196.911 325.553 196.699C325.552 196.486 323.863 195.773 321.8 195.114C319.738 194.455 318.049 193.739 318.047 193.524C318.045 193.31 317.544 193.056 316.934 192.96C314.568 192.59 311.43 191.65 311.074 191.205C310.869 190.948 310.01 190.655 309.165 190.553C308.32 190.451 306.168 190.135 304.384 189.853C298.253 188.88 291.185 188.503 283.04 188.716C275.598 188.91 272.65 189.136 266.307 190.003C264.804 190.208 262.96 190.454 262.209 190.55C261.457 190.646 260.689 190.918 260.501 191.155C260.313 191.392 259.698 191.667 259.135 191.765C255.229 192.446 252.249 193.209 251.926 193.613C251.718 193.873 251.344 194.086 251.097 194.086C250.849 194.086 250.136 194.24 249.512 194.429C248.888 194.617 247.879 194.904 247.268 195.068C244.315 195.856 243.256 196.289 243.256 196.71C243.256 196.962 242.997 197.169 242.682 197.169C242.037 197.169 240.207 197.728 238.594 198.42C238.002 198.673 237.281 198.881 236.991 198.881C236.701 198.881 236.263 199.169 236.017 199.522C235.771 199.874 234.74 200.452 233.727 200.806C232.715 201.16 231.822 201.688 231.743 201.98C231.665 202.273 230.88 202.722 230 202.979C228.395 203.448 226.993 204.166 226.347 204.85C225.865 205.36 224.22 206.33 222.559 207.083C221.788 207.432 221.063 207.964 220.948 208.265C220.832 208.566 220.57 208.812 220.363 208.812C220.157 208.812 219.485 209.197 218.869 209.668C218.253 210.139 217.532 210.524 217.265 210.524C216.999 210.524 216.629 210.86 216.443 211.271C216.258 211.682 215.611 212.26 215.004 212.556C214.398 212.851 213.899 213.24 213.895 213.419C213.884 213.875 211.782 216.004 211.342 216.004C211.143 216.004 210.775 216.469 210.524 217.037C210.273 217.604 209.694 218.266 209.238 218.506C208.445 218.922 207.545 220.247 206.713 222.219C206.503 222.718 206.034 223.205 205.671 223.3C205.308 223.395 204.919 223.757 204.806 224.105C204.304 225.649 203.423 227.069 202.873 227.22C202.545 227.311 202.275 227.636 202.274 227.944C202.274 228.252 201.966 229.008 201.591 229.625C201.216 230.242 200.91 230.957 200.91 231.215C200.91 231.473 200.702 231.764 200.448 231.861C199.985 232.039 199.239 233.897 198.376 237.021C198.122 237.938 197.765 238.785 197.58 238.904C197.117 239.203 196.865 240.115 196.077 244.352C195.11 249.546 194.894 257.587 195.59 262.407C196.482 268.574 196.966 270.906 197.385 271.046C197.603 271.119 198.285 272.711 198.901 274.584C199.517 276.457 200.183 277.989 200.382 277.989C200.74 277.989 202.276 281.003 202.276 281.707C202.276 281.909 202.597 282.247 202.991 282.458C203.384 282.669 204.014 283.541 204.391 284.395C204.768 285.249 205.358 286.021 205.702 286.112C206.046 286.202 206.572 286.791 206.87 287.421C207.168 288.051 207.82 288.888 208.318 289.281C208.816 289.674 209.389 290.326 209.592 290.73C209.794 291.133 210.371 291.707 210.873 292.004C211.376 292.3 212.196 293.044 212.696 293.657C213.197 294.269 213.812 294.77 214.063 294.77C214.315 294.77 214.877 295.209 215.313 295.746C215.75 296.284 216.99 297.163 218.07 297.701C219.15 298.239 220.034 298.848 220.034 299.053C220.034 299.259 220.61 299.643 221.314 299.908C222.893 300.502 222.777 300.46 223.705 300.763C224.127 300.901 224.473 301.208 224.473 301.444C224.473 301.681 225.587 302.216 226.949 302.632C228.311 303.049 229.778 303.53 230.209 303.703C230.641 303.875 231.354 304.016 231.795 304.016C232.235 304.016 232.678 304.229 232.777 304.489C232.974 305.003 233.587 305.13 239.499 305.883C245.756 306.68 249.075 306.557 259.221 305.155C260.125 305.03 260.672 304.777 260.672 304.485C260.672 304.205 261.04 304.016 261.587 304.016C262.09 304.016 262.974 303.876 263.551 303.704C266.105 302.946 267.081 302.668 268.441 302.313C269.314 302.086 269.892 301.736 269.892 301.434C269.892 301.132 270.222 300.934 270.726 300.934C271.185 300.934 271.642 300.801 271.742 300.638C271.842 300.476 272.619 300.148 273.469 299.909C274.319 299.67 275.015 299.29 275.015 299.064C275.015 298.837 275.437 298.458 275.954 298.22C276.471 297.983 277.328 297.572 277.86 297.306C278.392 297.041 279.045 296.824 279.311 296.824C279.578 296.824 279.796 296.676 279.796 296.496C279.796 295.997 281.597 294.428 282.183 294.416C282.861 294.402 283.709 293.722 283.992 292.967C284.116 292.634 284.568 292.228 284.995 292.064C285.864 291.731 286.754 290.799 287.078 289.882C287.197 289.548 287.566 289.171 287.899 289.045C288.767 288.715 289.358 288.056 289.358 287.415C289.358 287.11 289.817 286.598 290.377 286.278C290.938 285.957 291.55 285.309 291.738 284.838C292.359 283.286 293.3 281.875 293.639 281.989C293.822 282.05 294.17 281.445 294.411 280.644C294.972 278.784 296.19 276.334 296.948 275.541C297.271 275.202 297.631 274.497 297.746 273.974C298.191 271.964 298.645 270.797 298.983 270.797C299.176 270.797 299.246 270.566 299.138 270.284C299.03 270.001 299.053 269.77 299.19 269.77C299.741 269.77 301.617 259.061 301.65 255.729C301.659 254.828 301.744 254.658 301.993 255.044C302.322 255.554 302.342 255.327 302.435 250.164C302.451 249.27 302.584 248.537 302.731 248.537C303.103 248.537 304.495 250.476 304.34 250.779C304.27 250.916 304.541 251.149 304.942 251.298C305.462 251.491 305.881 252.234 306.411 253.906C306.818 255.191 307.242 256.974 307.352 257.867C307.462 258.76 307.761 259.665 308.017 259.878C308.346 260.152 308.482 261.16 308.482 263.316C308.482 265.712 308.372 266.409 307.97 266.564C307.667 266.68 307.455 267.202 307.451 267.838C307.442 269.175 306.669 273.397 305.95 276.037C305.652 277.129 305.408 278.092 305.408 278.177C305.408 278.262 305.178 278.332 304.896 278.332C304.61 278.332 304.384 278.636 304.384 279.021C304.384 279.4 304.248 279.978 304.081 280.305C303.915 280.632 303.42 281.748 302.981 282.783C302.542 283.819 301.839 285.029 301.417 285.472C300.996 285.915 300.559 286.608 300.447 287.013C300.083 288.327 299.497 289.29 299.063 289.29C298.83 289.29 298.304 289.984 297.895 290.831C297.486 291.679 296.93 292.372 296.659 292.372C296.388 292.372 296.072 292.642 295.956 292.972C295.655 293.832 294.091 295.454 293.563 295.454C293.316 295.454 293.114 295.724 293.114 296.054C293.114 296.383 292.585 297.077 291.937 297.595C291.29 298.113 290.664 298.537 290.547 298.537C290.208 298.537 289.512 299.336 289.252 300.025C289.12 300.372 288.706 300.737 288.332 300.835C287.957 300.934 287.649 301.188 287.648 301.402C287.645 301.843 285.595 303.331 284.991 303.331C284.772 303.331 284.358 303.69 284.071 304.13C283.784 304.569 282.521 305.446 281.265 306.079C280.009 306.712 278.704 307.508 278.364 307.849C278.025 308.189 277.593 308.487 277.405 308.511C277.218 308.534 276.91 308.592 276.722 308.639C276.535 308.686 276.22 308.744 276.023 308.768C275.826 308.791 275.327 309.164 274.913 309.596C274.5 310.029 273.239 310.664 272.112 311.009C270.985 311.353 269.797 311.77 269.47 311.935C269.144 312.1 268.498 312.235 268.036 312.235C267.573 312.235 267.072 312.453 266.921 312.72C266.771 312.987 265.195 313.524 263.404 313.919C261.62 314.312 259.504 314.787 258.704 314.975C257.902 315.163 256.796 315.317 256.244 315.317C255.693 315.317 255.119 315.523 254.969 315.773C254.526 316.512 248.705 317.029 240.823 317.029C232.972 317.029 227.547 316.536 227.103 315.781C226.952 315.526 226.415 315.317 225.907 315.317C224.907 315.317 221.18 314.581 218.08 313.771C217.009 313.491 216.005 313.031 215.847 312.749C215.689 312.466 215.193 312.235 214.744 312.235C214.294 312.235 213.843 312.098 213.74 311.931C213.637 311.764 213.029 311.529 212.388 311.409C211.154 311.176 209.058 310.245 208.753 309.793C208.652 309.645 207.692 309.133 206.618 308.657C205.149 308.006 204.666 307.616 204.666 307.082C204.666 306.692 204.524 306.461 204.351 306.568C204.177 306.676 203.309 306.377 202.422 305.904C201.534 305.43 200.637 305.043 200.428 305.043C200.219 305.043 199.896 304.711 199.71 304.305C199.525 303.898 198.674 303.191 197.819 302.733C196.964 302.275 196.119 301.567 195.94 301.162C195.762 300.755 195.184 300.217 194.656 299.964C194.127 299.712 193.601 299.249 193.488 298.936C193.217 298.191 192.019 296.999 191.262 296.722C190.934 296.602 190.665 296.278 190.665 296.004C190.665 295.729 190.12 295.054 189.454 294.504C188.789 293.954 187.968 292.979 187.63 292.338C187.292 291.698 186.685 291.022 186.279 290.836C185.874 290.65 185.542 290.356 185.542 290.182C185.542 290.009 185.12 288.97 184.603 287.875C184.087 286.779 183.467 285.879 183.227 285.874C182.986 285.869 182.694 285.596 182.578 285.266C182.463 284.937 182.084 284.02 181.736 283.23C181.388 282.44 181.103 281.648 181.103 281.469C181.103 281.291 180.882 281.059 180.611 280.955C180.153 280.779 178.371 275.818 178.371 274.718C178.371 274.445 178.175 274.222 177.935 274.222C177.673 274.222 177.253 273.165 176.879 271.568C176.078 268.14 175.678 265.351 175.323 260.708C175.154 258.488 174.881 256.903 174.655 256.827C174.192 256.673 174.127 252.305 174.587 252.305C174.76 252.305 174.991 251.264 175.1 249.993C175.771 242.152 176.857 235.378 177.555 234.678C177.816 234.417 178.474 232.471 179.018 230.355C179.677 227.786 180.231 226.326 180.684 225.964C181.057 225.666 181.445 225.036 181.546 224.565C181.915 222.85 182.733 221.04 183.277 220.735C183.584 220.563 183.835 220.237 183.835 220.011C183.835 219.204 185.701 215.319 186.089 215.319C186.307 215.319 186.992 214.086 187.612 212.579C188.233 211.072 188.926 209.84 189.153 209.84C189.379 209.84 189.89 209.146 190.287 208.298C190.685 207.451 191.222 206.757 191.483 206.757C191.743 206.757 192.281 206.064 192.678 205.216C193.075 204.369 193.553 203.675 193.74 203.675C193.927 203.675 194.08 203.444 194.08 203.162C194.08 202.879 194.272 202.646 194.507 202.645C194.742 202.644 195.106 202.297 195.316 201.875C196.519 199.456 196.943 198.809 197.447 198.615C198.13 198.353 199.175 197.144 199.191 196.598C199.197 196.378 199.817 195.71 200.568 195.114C201.32 194.517 201.934 193.814 201.934 193.553C201.934 193.291 202.387 192.842 202.94 192.555C203.492 192.269 204.145 191.614 204.391 191.101C204.636 190.588 205.167 190.004 205.569 189.802C206.649 189.262 207.412 188.564 207.235 188.277C207.056 187.987 208.606 186.552 209.098 186.552C209.279 186.552 209.768 186.09 210.184 185.525C210.601 184.96 211.077 184.497 211.242 184.497C211.798 184.497 213.887 182.708 213.887 182.231C213.887 181.971 214.106 181.758 214.375 181.758C214.643 181.758 215.433 181.218 216.13 180.559C216.827 179.9 217.463 179.361 217.543 179.361C217.623 179.361 218.178 178.993 218.776 178.544C219.374 178.095 220.209 177.623 220.631 177.494C221.054 177.365 221.4 177.055 221.4 176.806C221.4 176.557 221.976 176.104 222.68 175.8C224.298 175.102 226.236 173.993 226.494 173.617C226.604 173.459 227.411 172.996 228.288 172.589C229.165 172.182 229.981 171.69 230.1 171.496C230.35 171.091 233.596 169.553 234.889 169.228C235.368 169.107 235.916 168.718 236.105 168.362C236.294 168.007 236.669 167.717 236.938 167.717C237.207 167.717 237.932 167.501 238.548 167.236C239.165 166.972 240.361 166.56 241.207 166.322C242.052 166.083 242.897 165.708 243.085 165.489C243.645 164.833 244.861 164.292 245.774 164.292C246.245 164.292 246.725 164.138 246.841 163.95C246.957 163.762 247.434 163.607 247.9 163.607C248.366 163.607 249.177 163.289 249.703 162.899C250.736 162.133 251.804 161.808 256.147 160.939C257.722 160.624 258.965 160.201 258.965 159.98C258.965 159.763 259.695 159.497 260.587 159.388C261.479 159.28 263.208 159.034 264.428 158.842C270.058 157.954 271.622 157.75 274.332 157.551C276.119 157.419 277.366 157.163 277.576 156.883C278.022 156.291 283.126 156.138 296.017 156.329C303.165 156.435 306.016 156.591 306.262 156.888ZM194.763 204.189C194.763 204.283 194.84 204.36 194.934 204.36C195.027 204.36 195.104 204.283 195.104 204.189C195.104 204.095 195.027 204.018 194.934 204.018C194.84 204.018 194.763 204.095 194.763 204.189ZM195.518 205.182C195.76 205.445 196.012 205.61 196.078 205.547C196.28 205.354 195.767 204.703 195.412 204.703C195.228 204.703 195.275 204.918 195.518 205.182ZM196.47 205.901C196.47 205.995 196.547 206.072 196.641 206.072C196.735 206.072 196.812 205.995 196.812 205.901C196.812 205.807 196.735 205.73 196.641 205.73C196.547 205.73 196.47 205.807 196.47 205.901ZM302.676 207.956C302.676 208.05 302.753 208.127 302.847 208.127C302.941 208.127 303.018 208.05 303.018 207.956C303.018 207.862 302.941 207.785 302.847 207.785C302.753 207.785 302.676 207.862 302.676 207.956ZM300.969 209.668C300.969 209.762 301.046 209.84 301.14 209.84C301.234 209.84 301.31 209.762 301.31 209.668C301.31 209.574 301.234 209.497 301.14 209.497C301.046 209.497 300.969 209.574 300.969 209.668ZM300.286 210.182C300.286 210.433 300.388 210.536 300.514 210.41C300.639 210.285 300.639 210.079 300.514 209.954C300.388 209.828 300.286 209.931 300.286 210.182ZM201.251 210.867C201.251 211.118 201.354 211.221 201.479 211.095C201.604 210.97 201.604 210.764 201.479 210.638C201.354 210.513 201.251 210.616 201.251 210.867ZM298.578 212.066C298.578 212.16 298.655 212.237 298.749 212.237C298.843 212.237 298.92 212.16 298.92 212.066C298.92 211.971 298.843 211.894 298.749 211.894C298.655 211.894 298.578 211.971 298.578 212.066ZM297.895 212.75C297.895 212.845 297.972 212.922 298.066 212.922C298.16 212.922 298.237 212.845 298.237 212.75C298.237 212.656 298.16 212.579 298.066 212.579C297.972 212.579 297.895 212.656 297.895 212.75ZM296.188 214.463C296.188 214.557 296.265 214.634 296.359 214.634C296.453 214.634 296.529 214.557 296.529 214.463C296.529 214.369 296.453 214.292 296.359 214.292C296.265 214.292 296.188 214.369 296.188 214.463ZM295.505 214.976C295.505 215.227 295.607 215.33 295.733 215.205C295.858 215.079 295.858 214.874 295.733 214.748C295.607 214.623 295.505 214.725 295.505 214.976ZM205.349 215.148C205.349 215.242 205.426 215.319 205.52 215.319C205.614 215.319 205.691 215.242 205.691 215.148C205.691 215.053 205.614 214.976 205.52 214.976C205.426 214.976 205.349 215.053 205.349 215.148ZM206.032 215.661C206.032 215.912 206.135 216.015 206.26 215.89C206.385 215.764 206.385 215.559 206.26 215.433C206.135 215.308 206.032 215.41 206.032 215.661ZM293.797 216.86C293.797 216.954 293.874 217.031 293.968 217.031C294.062 217.031 294.139 216.954 294.139 216.86C294.139 216.766 294.062 216.689 293.968 216.689C293.874 216.689 293.797 216.766 293.797 216.86ZM208.423 218.23C208.423 218.324 208.5 218.401 208.593 218.401C208.687 218.401 208.764 218.324 208.764 218.23C208.764 218.136 208.687 218.059 208.593 218.059C208.5 218.059 208.423 218.136 208.423 218.23ZM224.587 234.383C224.712 234.508 224.917 234.508 225.042 234.383C225.167 234.257 225.065 234.154 224.815 234.154C224.564 234.154 224.462 234.257 224.587 234.383ZM225.156 235.01C225.156 235.105 225.233 235.182 225.327 235.182C225.421 235.182 225.498 235.105 225.498 235.01C225.498 234.916 225.421 234.839 225.327 234.839C225.233 234.839 225.156 234.916 225.156 235.01ZM227.205 236.723C227.205 236.817 227.282 236.894 227.376 236.894C227.47 236.894 227.547 236.817 227.547 236.723C227.547 236.628 227.47 236.551 227.376 236.551C227.282 236.551 227.205 236.628 227.205 236.723ZM208.423 290.146C208.423 290.241 208.5 290.318 208.593 290.318C208.687 290.318 208.764 290.241 208.764 290.146C208.764 290.052 208.687 289.975 208.593 289.975C208.5 289.975 208.423 290.052 208.423 290.146ZM213.887 296.996C213.887 297.09 213.964 297.167 214.057 297.167C214.151 297.167 214.228 297.09 214.228 296.996C214.228 296.901 214.151 296.824 214.057 296.824C213.964 296.824 213.887 296.901 213.887 296.996ZM287.381 297.303C287.623 297.567 287.875 297.732 287.941 297.669C288.143 297.476 287.63 296.824 287.275 296.824C287.091 296.824 287.139 297.04 287.381 297.303ZM213.204 297.68C213.204 297.775 213.281 297.852 213.374 297.852C213.468 297.852 213.545 297.775 213.545 297.68C213.545 297.586 213.468 297.509 213.374 297.509C213.281 297.509 213.204 297.586 213.204 297.68ZM211.496 299.393C211.496 299.487 211.573 299.564 211.667 299.564C211.761 299.564 211.838 299.487 211.838 299.393C211.838 299.299 211.761 299.222 211.667 299.222C211.573 299.222 211.496 299.299 211.496 299.393ZM210.813 300.078C210.813 300.172 210.89 300.249 210.984 300.249C211.078 300.249 211.155 300.172 211.155 300.078C211.155 299.984 211.078 299.906 210.984 299.906C210.89 299.906 210.813 299.984 210.813 300.078ZM208.878 301.847C209.003 301.973 209.208 301.973 209.333 301.847C209.458 301.722 209.356 301.619 209.106 301.619C208.855 301.619 208.753 301.722 208.878 301.847ZM208.423 302.475C208.423 302.569 208.5 302.646 208.593 302.646C208.687 302.646 208.764 302.569 208.764 302.475C208.764 302.381 208.687 302.304 208.593 302.304C208.5 302.304 208.423 302.381 208.423 302.475ZM206.715 304.187C206.715 304.281 206.792 304.358 206.886 304.358C206.98 304.358 207.057 304.281 207.057 304.187C207.057 304.093 206.98 304.016 206.886 304.016C206.792 304.016 206.715 304.093 206.715 304.187ZM206.032 304.872C206.032 304.966 206.109 305.043 206.203 305.043C206.297 305.043 206.374 304.966 206.374 304.872C206.374 304.778 206.297 304.701 206.203 304.701C206.109 304.701 206.032 304.778 206.032 304.872ZM304.042 313.776C304.042 313.87 304.119 313.947 304.213 313.947C304.307 313.947 304.384 313.87 304.384 313.776C304.384 313.682 304.307 313.605 304.213 313.605C304.119 313.605 304.042 313.682 304.042 313.776ZM306.433 316.173C306.433 316.268 306.51 316.345 306.604 316.345C306.698 316.345 306.774 316.268 306.774 316.173C306.774 316.079 306.698 316.002 306.604 316.002C306.51 316.002 306.433 316.079 306.433 316.173ZM306.888 316.915C307.013 317.041 307.218 317.041 307.344 316.915C307.469 316.79 307.366 316.687 307.116 316.687C306.866 316.687 306.763 316.79 306.888 316.915ZM311.214 320.968C311.214 321.062 311.291 321.139 311.385 321.139C311.478 321.139 311.555 321.062 311.555 320.968C311.555 320.874 311.478 320.797 311.385 320.797C311.291 320.797 311.214 320.874 311.214 320.968ZM311.669 321.71C311.794 321.835 311.999 321.835 312.125 321.71C312.25 321.584 312.147 321.481 311.897 321.481C311.646 321.481 311.544 321.584 311.669 321.71ZM312.238 322.338C312.238 322.432 312.315 322.509 312.409 322.509C312.503 322.509 312.58 322.432 312.58 322.338C312.58 322.243 312.503 322.166 312.409 322.166C312.315 322.166 312.238 322.243 312.238 322.338ZM186.908 324.05C186.908 324.144 186.985 324.221 187.079 324.221C187.173 324.221 187.25 324.144 187.25 324.05C187.25 323.956 187.173 323.879 187.079 323.879C186.985 323.879 186.908 323.956 186.908 324.05ZM186.225 324.735C186.225 324.829 186.302 324.906 186.396 324.906C186.49 324.906 186.567 324.829 186.567 324.735C186.567 324.641 186.49 324.564 186.396 324.564C186.302 324.564 186.225 324.641 186.225 324.735ZM184.973 325.819C185.098 325.945 185.303 325.945 185.429 325.819C185.554 325.694 185.451 325.591 185.201 325.591C184.951 325.591 184.848 325.694 184.973 325.819ZM184.518 326.447C184.518 326.541 184.595 326.618 184.689 326.618C184.782 326.618 184.859 326.541 184.859 326.447C184.859 326.353 184.782 326.276 184.689 326.276C184.595 326.276 184.518 326.353 184.518 326.447ZM183.835 327.132C183.835 327.226 183.912 327.303 184.006 327.303C184.099 327.303 184.176 327.226 184.176 327.132C184.176 327.038 184.099 326.961 184.006 326.961C183.912 326.961 183.835 327.038 183.835 327.132ZM189.754 423.421C189.879 423.546 190.084 423.546 190.21 423.421C190.335 423.295 190.232 423.192 189.982 423.192C189.731 423.192 189.629 423.295 189.754 423.421ZM190.323 424.048C190.323 424.142 190.4 424.219 190.494 424.219C190.588 424.219 190.665 424.142 190.665 424.048C190.665 423.954 190.588 423.877 190.494 423.877C190.4 423.877 190.323 423.954 190.323 424.048ZM194.535 428.215C194.66 428.34 194.865 428.34 194.991 428.215C195.116 428.089 195.013 427.987 194.763 427.987C194.512 427.987 194.41 428.089 194.535 428.215ZM195.104 428.843C195.104 428.937 195.181 429.014 195.275 429.014C195.369 429.014 195.446 428.937 195.446 428.843C195.446 428.749 195.369 428.671 195.275 428.671C195.181 428.671 195.104 428.749 195.104 428.843ZM81.7267 430.555C81.7267 430.649 81.8036 430.726 81.8975 430.726C81.9914 430.726 82.0682 430.649 82.0682 430.555C82.0682 430.461 81.9914 430.384 81.8975 430.384C81.8036 430.384 81.7267 430.461 81.7267 430.555ZM81.0437 431.24C81.0437 431.334 81.1206 431.411 81.2145 431.411C81.3084 431.411 81.3852 431.334 81.3852 431.24C81.3852 431.146 81.3084 431.069 81.2145 431.069C81.1206 431.069 81.0437 431.146 81.0437 431.24ZM197.495 431.24C197.495 431.334 197.572 431.411 197.666 431.411C197.759 431.411 197.836 431.334 197.836 431.24C197.836 431.146 197.759 431.069 197.666 431.069C197.572 431.069 197.495 431.146 197.495 431.24ZM76.2627 436.034C76.2627 436.129 76.3396 436.206 76.4335 436.206C76.5274 436.206 76.6042 436.129 76.6042 436.034C76.6042 435.94 76.5274 435.863 76.4335 435.863C76.3396 435.863 76.2627 435.94 76.2627 436.034ZM73.8722 438.432C73.8722 438.526 73.9491 438.603 74.043 438.603C74.1369 438.603 74.2137 438.526 74.2137 438.432C74.2137 438.337 74.1369 438.26 74.043 438.26C73.9491 438.26 73.8722 438.337 73.8722 438.432Z" fill="white"/>
</g>
</g>
<defs>
<filter id="filter0_f_979_6548" x="-16" y="55" width="544" height="402" filterUnits="userSpaceOnUse" color-interpolation-filters="sRGB">
<feFlood flood-opacity="0" result="BackgroundImageFix"/>
<feBlend mode="normal" in="SourceGraphic" in2="BackgroundImageFix" result="shape"/>
<feGaussianBlur stdDeviation="8" result="effect1_foregroundBlur_979_6548"/>
</filter>
<clipPath id="clip0_979_6548">
<rect width="512" height="512" fill="white"/>
</clipPath>
</defs>
</svg>
