<svg width="512" height="512" viewBox="0 0 512 512" fill="none" xmlns="http://www.w3.org/2000/svg">
<g filter="url(#filter0_f_985_3856)">
<path d="M226.571 399.703C218.217 394.894 210.369 389.831 203.027 383.502C199.23 379.958 195.432 376.668 191.888 372.617C176.192 354.898 165.56 334.14 162.522 310.599C161.256 299.714 161.762 289.335 164.041 278.45C166.319 269.084 169.357 260.73 174.927 252.63C178.218 248.327 181.002 243.264 186.572 242.504C186.825 242.504 187.331 242.504 187.585 242.757C188.091 243.011 188.091 243.517 188.091 243.77C188.597 250.098 185.812 255.668 184.04 261.743C178.977 279.463 177.205 297.688 182.521 315.661C189.61 339.456 204.293 358.442 225.305 372.617C246.824 386.793 270.114 393.375 294.671 393.628C320.746 394.134 345.809 387.299 368.593 371.605C369.1 371.099 369.353 370.592 369.859 370.339C372.138 369.073 373.657 367.301 375.429 365.53C375.682 365.276 375.682 364.517 376.188 364.264C375.935 364.264 375.935 364.011 375.935 363.758C373.91 363.758 372.391 364.77 370.619 365.53C361.252 369.327 352.391 373.377 342.771 376.668C340.746 377.174 338.974 377.68 336.949 378.44C315.177 384.768 293.658 385.781 271.127 380.718C255.178 376.921 241.761 370.592 228.596 360.72C216.192 351.101 206.825 339.203 200.749 325.027C197.458 317.433 195.432 309.586 195.432 301.232C195.686 299.207 195.686 296.929 197.205 295.41C197.964 294.651 198.977 294.904 199.989 295.663C202.268 297.435 203.28 299.967 204.546 302.498C204.799 303.258 205.306 303.764 205.812 304.27C206.318 305.283 206.825 306.548 207.331 307.561C211.635 315.408 215.938 322.243 221.255 329.331C222.521 330.85 223.786 332.115 225.052 333.634C249.355 359.96 286.064 367.555 320.493 359.454C336.695 355.657 350.366 349.329 364.29 339.709C377.96 330.09 388.087 319.711 397.707 306.042C398.973 304.27 399.732 302.498 400.998 300.726C410.365 285.791 415.934 270.35 417.96 253.136C417.96 251.364 418.213 249.339 417.453 247.567C415.428 248.58 414.922 251.111 414.415 252.883C406.314 274.4 396.694 294.651 380.998 311.864C374.922 318.699 368.593 324.015 360.999 329.584C351.125 336.672 340.999 341.735 329.607 345.278C327.582 345.785 325.556 346.291 323.278 347.05C307.329 351.101 291.886 351.101 275.937 347.304C269.861 345.785 264.545 343.506 258.975 340.722C255.684 338.95 252.9 337.178 249.609 334.9C247.583 333.128 245.558 331.609 244.039 329.331C243.786 328.824 243.786 328.571 243.28 328.065C242.267 326.799 241.761 324.521 243.533 324.015C244.799 323.509 246.064 323.762 247.33 323.762C248.09 324.015 248.849 324.268 249.862 324.521C261.001 327.559 271.633 330.85 283.279 332.368C293.152 333.381 302.772 332.622 312.645 330.343C336.695 324.268 355.935 310.092 370.619 289.841C384.542 270.35 391.631 249.086 393.403 226.05C394.669 208.837 393.15 191.877 387.58 175.423C383.53 163.272 378.467 152.64 370.619 142.008C368.847 139.73 367.074 137.705 364.796 135.933H364.037C363.783 136.439 363.783 137.199 364.037 137.705C365.556 141.502 367.074 145.046 368.847 148.59C375.682 165.044 381.505 181.498 383.277 199.218C385.302 220.481 382.77 241.492 374.163 260.983C364.037 283.766 346.569 303.258 322.772 312.117C314.924 314.902 307.076 317.433 298.721 316.168C297.456 315.914 296.19 315.155 295.177 314.142C294.924 311.105 298.468 309.839 300.747 308.32C311.633 302.245 322.012 296.929 331.632 288.829C340.999 280.728 348.088 271.109 353.151 259.971C357.961 249.845 360.746 238.96 362.011 227.822C363.783 211.621 361.505 195.674 356.442 180.232C355.429 177.701 354.67 175.423 353.657 172.891C352.644 170.36 351.379 168.082 350.366 165.55C336.949 138.465 315.177 116.441 287.582 103.785C276.95 98.9749 266.317 95.431 254.672 94.1653C252.393 94.1653 250.115 93.659 247.836 94.4185C247.583 94.4185 247.583 94.6716 247.583 94.9247C248.343 95.9373 249.862 96.4436 250.874 96.9498C262.773 101.506 274.165 106.316 285.557 112.138C296.443 117.96 306.063 125.301 314.924 133.908C325.556 144.54 334.164 156.184 340.493 169.601C349.606 189.598 352.898 211.115 348.088 233.391C346.315 241.239 343.784 248.073 339.48 255.161C336.189 260.983 332.392 268.071 325.303 269.59C323.025 268.831 323.784 265.793 324.037 263.768C327.835 250.098 332.392 236.935 332.898 223.013C333.151 213.9 332.138 205.04 329.607 196.18C324.037 177.448 313.405 161.5 298.721 148.337C292.899 143.274 287.076 138.971 280.241 135.174C264.545 126.061 248.09 120.998 230.368 118.973C212.647 117.201 195.432 118.467 178.471 123.529C166.319 127.073 155.686 131.883 145.054 139.477C141.51 141.755 137.965 143.78 135.94 147.577C135.94 147.577 136.193 147.831 136.193 148.084C137.965 148.084 139.737 147.071 141.51 146.312C152.649 141.755 163.281 136.946 175.18 133.402C195.686 127.58 215.938 126.061 237.457 130.364C254.672 133.908 269.608 140.236 283.532 151.121C297.962 162.513 308.595 176.688 313.911 193.902C315.43 198.965 316.696 204.28 316.696 209.596C316.443 211.875 316.443 214.406 314.924 216.431C314.417 216.937 313.658 217.19 313.152 216.937C310.62 215.672 309.354 212.887 307.835 210.356C307.582 209.849 307.329 209.343 306.823 208.584C301.253 197.699 295.177 187.573 287.076 178.207C281.507 172.132 275.431 167.829 268.596 163.272C263.026 159.728 257.203 157.45 251.128 155.172C216.445 142.768 178.724 150.362 147.839 172.132C121.51 190.864 104.042 215.672 96.194 246.301C95.9409 247.061 96.194 247.82 95.9409 248.58L95.1814 252.377C95.1814 252.883 94.6751 253.642 94.6751 254.149C94.6751 257.439 93.1561 261.237 94.6751 264.274C96.9535 262.755 97.4598 259.971 98.4725 257.693C106.067 236.682 115.687 216.937 131.13 199.977C138.218 192.383 145.307 186.308 154.168 180.232C179.99 163.019 209.609 156.69 238.723 165.297C248.09 168.335 256.697 172.132 264.545 178.713C266.317 180.232 267.583 182.004 268.849 183.776C269.608 185.295 270.368 187.32 268.596 188.08C266.823 188.586 265.051 188.08 263.279 187.573H262.267C246.571 182.764 230.875 177.954 214.419 179.22C196.192 180.739 178.977 187.067 164.041 198.711C155.18 205.799 148.092 212.634 141.51 222C136.953 228.582 133.155 234.91 129.864 241.998C117.206 269.843 114.928 300.726 122.776 330.596C126.067 343.253 130.877 354.138 138.218 365.276C141.003 369.327 143.282 372.871 147.332 375.908H148.092C148.345 375.149 148.092 374.389 147.839 373.63C140.497 356.417 133.155 339.709 129.864 320.724C126.826 302.498 127.586 285.032 132.143 267.312C134.927 257.186 138.725 248.073 144.041 238.96C149.104 230.607 154.674 223.772 161.509 217.19C167.079 212.128 173.154 207.824 179.737 204.027C188.597 199.471 197.458 196.18 207.331 195.421C210.622 195.167 214.419 195.167 216.951 197.699C217.204 200.23 214.673 201.496 212.9 202.508C209.609 204.534 206.572 206.306 203.28 207.824C198.217 210.356 193.914 213.393 189.104 216.431C175.433 225.797 165.56 237.442 158.978 251.87C155.18 259.971 152.902 268.071 151.13 277.184C147.332 296.17 150.117 313.889 155.686 331.609C156.699 334.14 157.712 336.419 158.471 338.95C159.484 341.481 160.497 343.76 161.762 346.291C163.028 348.822 164.294 351.101 165.56 353.632C178.471 376.161 196.445 393.881 219.229 405.525C232.141 412.107 245.558 416.663 259.988 417.929C261.254 418.182 262.773 417.676 264.039 417.676C264.292 417.676 264.798 417.17 264.545 416.917C261.76 414.638 258.216 413.879 254.925 412.36C247.077 409.322 239.482 406.285 231.887 402.488C230.115 401.475 228.343 400.463 226.571 399.703Z" fill="white"/>
</g>
<defs>
<filter id="filter0_f_985_3856" x="78" y="78" width="356" height="356" filterUnits="userSpaceOnUse" color-interpolation-filters="sRGB">
<feFlood flood-opacity="0" result="BackgroundImageFix"/>
<feBlend mode="normal" in="SourceGraphic" in2="BackgroundImageFix" result="shape"/>
<feGaussianBlur stdDeviation="8" result="effect1_foregroundBlur_985_3856"/>
</filter>
</defs>
</svg>
