<svg width="512" height="512" viewBox="0 0 512 512" fill="none" xmlns="http://www.w3.org/2000/svg">
<g filter="url(#filter0_f_985_3859)">
<path fill-rule="evenodd" clip-rule="evenodd" d="M239.819 417.873C225.588 415.84 212.374 410.503 199.414 403.388C198.361 402.686 197.308 402.105 196.172 401.479C195.662 401.198 195.136 400.907 194.585 400.592C188.232 396.781 182.895 392.715 177.305 388.14C175.974 386.809 174.643 385.672 173.143 384.39L173.142 384.39C173.007 384.274 172.871 384.158 172.733 384.04C172.648 383.967 172.562 383.894 172.476 383.82C150.113 362.982 135.12 337.061 130.038 306.566C126.988 289.032 127.75 272.514 131.816 255.233C136.391 236.682 144.523 220.672 156.975 206.441C165.361 197.039 174.509 189.669 185.437 183.57C207.037 171.626 232.196 168.577 255.575 175.946C269.552 180.521 281.75 188.653 290.898 200.596C293.92 204.664 296.357 208.837 298.258 213.19C297.739 207.64 296.22 202.341 293.948 197.293C289.882 188.653 284.037 181.283 276.413 174.93C271.077 170.61 265.486 167.306 259.641 164.257C258.625 163.876 257.672 163.495 256.719 163.113C255.766 162.732 254.813 162.351 253.796 161.97C223.81 150.28 190.773 155.871 163.328 173.151C135.374 190.94 117.331 217.115 107.166 247.356C103.863 257.521 101.321 267.177 99.5426 277.851C99.4628 278.25 99.3893 278.649 99.3161 279.046C98.9232 281.177 98.5408 283.252 97.2555 284.966H96.7472C95.2225 282.425 95.2225 279.63 95.2225 276.834C94.206 261.587 96.7472 246.593 101.321 231.854C112.757 196.785 137.153 166.798 170.697 150.534C197.381 137.32 227.367 133.508 256.592 141.386C276.922 146.722 294.202 157.396 308.179 173.151C322.41 189.669 330.542 210.254 330.034 231.6C329.76 243.373 326.684 255.072 320.845 265.267C343.386 241.96 341.648 205.625 326.73 178.234C308.433 144.689 274.126 124.867 237.024 120.547C223.301 119.023 210.087 119.277 196.364 121.31C189.503 122.58 183.15 123.851 176.542 125.63C173.493 126.477 170.67 127.324 167.846 128.171L167.846 128.171C166.434 128.595 165.022 129.018 163.582 129.442C162.414 129.807 161.268 130.234 160.13 130.659C157.306 131.712 154.537 132.745 151.638 132.745C151.384 132.745 151.384 132.491 151.384 132.237C154.853 127.684 159.618 125.165 164.414 122.63L164.414 122.63C165.239 122.194 166.065 121.757 166.886 121.31C176.542 116.227 185.945 112.924 196.872 110.382C209.324 107.841 221.014 106.062 233.212 106.571C243.631 107.079 253.542 108.349 263.961 110.891C277.43 114.448 289.374 119.277 301.572 126.9C302.715 127.663 303.732 128.362 304.748 129.061C305.765 129.759 306.781 130.458 307.925 131.221C318.09 138.336 325.968 145.96 333.591 155.362C340.961 164.765 346.806 174.422 351.126 185.349C353.413 191.194 355.192 197.039 356.717 203.392C360.274 219.91 360.274 235.412 356.208 251.676C353.413 262.349 349.601 271.497 343.248 280.9C336.641 290.557 329.78 297.672 320.123 304.025C313.933 308.152 307.595 311.236 300.987 313.318C301.266 313.272 301.545 313.224 301.826 313.174C319.106 310.124 333.337 300.722 344.773 287.761C355.446 275.309 361.799 261.586 365.357 245.322C371.964 214.319 365.357 184.841 348.331 158.412C334.608 137.065 317.327 121.564 295.727 108.857C291.661 106.57 287.849 104.537 283.783 102.504C282.343 101.827 280.903 101.177 279.463 100.528C276.583 99.2289 273.703 97.93 270.823 96.4053C270.609 96.2631 270.396 96.1407 270.188 96.0216C269.653 95.715 269.156 95.4296 268.79 94.8806V94.3723C272.85 93.4054 276.617 94.4986 280.537 95.6364L280.537 95.6364C281.769 95.9939 283.016 96.3557 284.291 96.6594C292.169 98.4383 299.03 101.488 306.146 104.791C331.558 117.244 352.142 136.557 366.628 161.461C385.941 195.514 390.007 235.666 375.776 271.751C368.661 290.048 357.733 305.804 341.977 318.51C325.714 331.216 306.908 338.84 286.832 339.857C257.224 341.57 226.438 326.318 214.212 298.866C214.681 302.998 215.826 307.125 217.202 310.887C223.81 329.692 240.328 342.907 258.625 350.022C280.479 358.408 304.367 357.392 326.222 349.768C337.149 345.956 346.806 340.619 356.463 333.758C367.136 325.88 375.268 317.494 383.146 307.075C392.548 294.369 399.41 281.408 404.492 266.923C408.304 255.742 410.845 245.069 413.132 233.125C413.212 232.768 413.285 232.411 413.358 232.056C413.751 230.136 414.133 228.273 415.419 226.772C415.419 227.026 415.928 227.026 415.928 227.026C416.436 228.296 416.69 229.567 416.944 230.838C420.756 276.58 399.664 321.56 361.291 349.768C354.938 354.342 348.839 358.154 341.977 361.458C330.034 367.303 317.836 371.114 304.621 373.147C292.931 374.926 281.496 374.926 269.806 373.402C247.189 370.098 226.605 360.695 210.087 344.685C203.988 338.841 199.414 332.742 194.839 325.626C189.249 316.732 185.945 307.837 183.912 297.672C182.133 288.27 181.879 279.63 183.404 270.227C183.658 269.083 183.848 268.067 184.039 267.05C184.23 266.034 184.42 265.017 184.674 263.874C186.375 257.473 188.823 251.466 192.049 245.977C189.643 248.439 187.463 251.221 185.437 254.217C185.183 254.64 184.957 255.064 184.731 255.487L184.731 255.488C184.279 256.335 183.827 257.182 183.15 258.029C182.387 259.299 181.625 260.57 181.117 262.095C180.862 262.857 180.545 263.556 180.227 264.255L180.227 264.255L180.227 264.255C179.909 264.954 179.592 265.653 179.338 266.415C166.377 301.23 181.879 339.857 209.833 363.491C223.81 374.926 238.803 383.058 256.337 387.632C275.397 392.715 294.202 393.477 313.516 390.936C321.139 389.665 328.255 388.395 335.878 386.362C339.364 385.382 342.709 384.261 346.054 383.141C350.514 381.647 354.974 380.154 359.766 378.992C359.898 378.992 360.029 378.975 360.156 378.959C360.52 378.912 360.848 378.869 361.037 379.246C361.037 380.558 359.72 381.494 358.705 382.215C358.54 382.332 358.383 382.443 358.241 382.55C354.662 385.709 350.733 387.82 346.599 390.042L346.599 390.042C345.744 390.501 344.881 390.965 344.01 391.444C338.674 393.985 333.591 396.018 328.001 398.051C323.935 399.322 319.869 400.593 315.549 401.609C293.948 406.438 273.364 406.946 251.763 401.863C249.476 401.101 247.189 400.593 244.902 400.084C216.948 392.207 193.569 376.451 175.78 352.309C163.836 336.045 156.975 318.765 154.179 299.451C151.638 280.646 154.179 262.095 161.549 244.814C170.845 223.412 188.417 206.055 210.667 198.847C193.216 201.68 179.044 211.315 167.648 224.23C147.318 247.864 140.965 278.613 146.556 309.108C152.146 339.857 168.665 365.015 191.79 385.345C207.037 398.559 224.064 407.2 242.107 416.094C242.188 416.135 242.295 416.182 242.415 416.235L242.417 416.235C243.046 416.512 244.017 416.938 243.377 417.365C242.805 418.127 241.805 418.032 240.804 417.936C240.471 417.905 240.137 417.873 239.819 417.873Z" fill="white"/>
</g>
<defs>
<filter id="filter0_f_985_3859" x="79" y="78" width="354.385" height="356" filterUnits="userSpaceOnUse" color-interpolation-filters="sRGB">
<feFlood flood-opacity="0" result="BackgroundImageFix"/>
<feBlend mode="normal" in="SourceGraphic" in2="BackgroundImageFix" result="shape"/>
<feGaussianBlur stdDeviation="8" result="effect1_foregroundBlur_985_3859"/>
</filter>
</defs>
</svg>
