<svg width="1200" height="630" viewBox="0 0 1200 630" fill="none" xmlns="http://www.w3.org/2000/svg">
<g clip-path="url(#clip0_1965_7636)">
<rect width="1200" height="630" fill="#09090A"/>
<g style="mix-blend-mode:screen" filter="url(#filter0_f_1965_7636)">
<circle cx="1200" cy="626" r="626" transform="rotate(-90 1200 626)" fill="url(#paint0_radial_1965_7636)"/>
</g>
<g filter="url(#filter1_f_1965_7636)">
<path d="M872.08 170.365C871.881 170.123 871.621 169.936 871.33 169.821C765.537 128.279 670.588 98.9902 592.141 83.7014C513.585 68.3911 453.19 67.4343 414.565 80.8882C375.941 94.3421 359.88 121.931 367.342 162.005C374.783 201.968 405.464 253.529 457.558 313.623C457.843 313.951 458.209 314.208 458.616 314.362V314.362C461.171 315.33 463.337 312.211 461.571 310.126C414.042 254.015 385.968 205.745 378.935 167.975C371.573 128.438 387.419 101.219 425.526 87.9455C463.633 74.6719 523.219 75.6159 600.723 90.7211C676.583 105.506 768.084 133.56 869.97 173.261C871.744 173.952 873.291 171.834 872.08 170.365V170.365Z" fill="url(#paint1_linear_1965_7636)"/>
</g>
<path fill-rule="evenodd" clip-rule="evenodd" d="M157.25 549.631V516H161.051V549.631H157.25ZM166.801 521.522V516H170.549V521.522H166.801ZM166.801 549.632V524.534H170.549V549.632H166.801ZM186.331 524.333C179.047 524.333 174.983 528.85 174.983 535.878C174.983 542.905 179.1 547.426 186.278 547.423C190.818 547.423 194.091 545.114 195.304 542.253H195.357V548.578C195.357 553.547 193.405 555.455 187.809 555.455C182.321 555.455 180.156 553.697 180.156 549.632H176.408C176.408 555.354 181.106 558.667 187.756 558.667C194.618 558.667 199.157 555.304 199.157 548.578V524.835H195.779V529.653H195.569C194.406 526.491 190.924 524.333 186.331 524.333ZM195.357 536.63C195.357 541.752 191.873 544.311 187.176 544.311C182.109 544.311 178.783 542.453 178.783 535.878C178.783 529.353 182.003 527.445 186.964 527.445C191.82 527.445 195.357 530.005 195.357 535.126V536.63ZM205.066 549.631V516H208.867V529.456H209.077C210.08 527.097 212.772 524.336 218.051 524.336C224.86 524.336 227.763 528.653 227.763 534.325V549.634H224.014V535.225C224.014 529.854 222.113 527.494 216.834 527.494C211.61 527.494 208.863 529.803 208.863 535.375V549.631H205.066ZM235.628 527.947V542.604C235.628 547.875 238.425 549.682 243.228 549.682C244.716 549.671 246.2 549.537 247.663 549.281V546.369H244.231C240.853 546.369 239.427 545.716 239.427 542.805V527.947H247.663V524.835H239.427V518.511H236.573L235.676 524.835H231.247V527.947H235.628Z" fill="#F9F9FF"/>
<path fill-rule="evenodd" clip-rule="evenodd" d="M103 503.555C97.5028 503.549 92.1037 504.891 87.3618 507.443H118.636C113.895 504.891 108.497 503.549 103 503.555ZM125.443 512.388C126.694 513.591 127.828 514.892 128.832 516.276H77.1655C77.9073 515.268 78.7192 514.306 79.5961 513.395H79.5588C79.6347 513.316 79.7156 513.241 79.7961 513.167C79.8645 513.105 79.9328 513.042 79.9977 512.976C80.0779 512.895 80.1553 512.811 80.2326 512.727L80.2327 512.727L80.2327 512.727C80.3386 512.612 80.4445 512.497 80.5573 512.388H80.61C81.6717 511.351 82.8162 510.388 84.0338 509.507H101.175C99.9564 510.388 98.8119 511.351 97.7508 512.388H125.443ZM133.08 525.106C132.721 523.781 132.256 522.482 131.691 521.219H91.4672C91.9008 520.234 92.3939 519.272 92.9442 518.338H75.8035C75.2532 519.272 74.7604 520.234 74.3276 521.219H74.3089C74.2789 521.287 74.2522 521.357 74.2255 521.427C74.2014 521.489 74.1774 521.552 74.1509 521.614C74.1171 521.691 74.0811 521.769 74.0448 521.847C73.9868 521.971 73.9283 522.097 73.8776 522.226H73.9051C73.5193 523.169 73.1895 524.13 72.9174 525.106H133.08ZM133.921 530.053H89.2395C89.304 529.088 89.4219 528.127 89.5928 527.173H72.4532C72.2814 528.127 72.1631 529.088 72.0988 530.053H72.0801C72.0713 530.169 72.0679 530.284 72.0645 530.398C72.062 530.483 72.0595 530.568 72.0549 530.651C72.0517 530.716 72.0461 530.781 72.0405 530.845C72.0343 530.916 72.0281 530.988 72.0253 531.06H72.0384C72.0342 531.161 72.0287 531.262 72.0231 531.362C72.0116 531.573 72 531.783 72 531.997C72 532.651 72.0329 533.298 72.0801 533.94H133.921C133.968 533.298 134.001 532.651 134.001 531.997C134.001 531.344 133.968 530.696 133.921 530.053ZM82.9364 553.671H100.077C101.461 554.749 102.946 555.715 104.514 556.556H118.639C113.897 559.108 108.498 560.45 103 560.444C98.2955 560.446 93.6525 559.46 89.4272 557.561H89.3987C89.3684 557.546 89.3389 557.531 89.3096 557.516L89.3095 557.516C89.2721 557.497 89.235 557.478 89.1968 557.46C89.1046 557.418 89.0139 557.373 88.9232 557.328L88.923 557.328L88.9227 557.328L88.9223 557.328C88.8633 557.298 88.8043 557.269 88.7447 557.241C88.3124 557.035 87.8833 556.826 87.463 556.602C87.4454 556.593 87.4272 556.584 87.4089 556.575L87.4089 556.575L87.4088 556.575L87.3868 556.564C87.3781 556.56 87.3695 556.556 87.3609 556.551H87.373C85.8054 555.711 84.3208 554.748 82.9364 553.671ZM92.4822 544.839H75.3415C75.8994 545.832 76.5201 546.793 77.2004 547.719H77.1675C77.2351 547.812 77.308 547.901 77.381 547.989L77.3811 547.989L77.3811 547.989C77.4396 548.06 77.4981 548.131 77.5537 548.204C77.6093 548.277 77.6643 548.355 77.72 548.433L77.72 548.433L77.7201 548.434C77.7896 548.532 77.8602 548.632 77.9346 548.726H77.9697C78.7634 549.737 79.6277 550.699 80.5572 551.608H125.439C126.69 550.404 127.824 549.103 128.829 547.719H94.3379C93.6579 546.794 93.0382 545.832 92.4822 544.839ZM72.3117 536.006H89.4524C89.6076 536.975 89.8186 537.937 90.0845 538.886H133.08C132.721 540.211 132.256 541.51 131.691 542.773H74.3089C73.8958 541.831 73.5379 540.87 73.2368 539.893H73.2193C73.1949 539.816 73.1747 539.737 73.1545 539.658C73.1374 539.592 73.1203 539.525 73.1007 539.46C73.0763 539.378 73.0496 539.297 73.0228 539.215C72.9869 539.106 72.9509 538.997 72.9208 538.886H72.9438C72.6784 537.937 72.4674 536.975 72.3117 536.006Z" fill="#F9F9FF"/>
<g filter="url(#filter2_f_1965_7636)">
<circle cx="793.173" cy="630.173" r="72.1727" transform="rotate(-180 793.173 630.173)" fill="url(#paint2_radial_1965_7636)"/>
</g>
<g filter="url(#filter3_f_1965_7636)">
<circle cx="1069.15" cy="160.149" r="36.0864" transform="rotate(64.3557 1069.15 160.149)" fill="url(#paint3_radial_1965_7636)"/>
</g>
<g filter="url(#filter4_f_1965_7636)">
<circle cx="788.064" cy="241.064" r="16" transform="rotate(-180 788.064 241.064)" fill="url(#paint4_radial_1965_7636)"/>
</g>
</g>
<defs>
<filter id="filter0_f_1965_7636" x="474" y="-100" width="1452" height="1452" filterUnits="userSpaceOnUse" color-interpolation-filters="sRGB">
<feFlood flood-opacity="0" result="BackgroundImageFix"/>
<feBlend mode="normal" in="SourceGraphic" in2="BackgroundImageFix" result="shape"/>
<feGaussianBlur stdDeviation="50" result="effect1_foregroundBlur_1965_7636"/>
</filter>
<filter id="filter1_f_1965_7636" x="363.001" y="68.8993" width="512.072" height="248.205" filterUnits="userSpaceOnUse" color-interpolation-filters="sRGB">
<feFlood flood-opacity="0" result="BackgroundImageFix"/>
<feBlend mode="normal" in="SourceGraphic" in2="BackgroundImageFix" result="shape"/>
<feGaussianBlur stdDeviation="1.28081" result="effect1_foregroundBlur_1965_7636"/>
</filter>
<filter id="filter2_f_1965_7636" x="719" y="556" width="148.346" height="148.346" filterUnits="userSpaceOnUse" color-interpolation-filters="sRGB">
<feFlood flood-opacity="0" result="BackgroundImageFix"/>
<feBlend mode="normal" in="SourceGraphic" in2="BackgroundImageFix" result="shape"/>
<feGaussianBlur stdDeviation="1" result="effect1_foregroundBlur_1965_7636"/>
</filter>
<filter id="filter3_f_1965_7636" x="1029.05" y="120.055" width="80.1895" height="80.1895" filterUnits="userSpaceOnUse" color-interpolation-filters="sRGB">
<feFlood flood-opacity="0" result="BackgroundImageFix"/>
<feBlend mode="normal" in="SourceGraphic" in2="BackgroundImageFix" result="shape"/>
<feGaussianBlur stdDeviation="2" result="effect1_foregroundBlur_1965_7636"/>
</filter>
<filter id="filter4_f_1965_7636" x="768.064" y="221.064" width="40" height="40" filterUnits="userSpaceOnUse" color-interpolation-filters="sRGB">
<feFlood flood-opacity="0" result="BackgroundImageFix"/>
<feBlend mode="normal" in="SourceGraphic" in2="BackgroundImageFix" result="shape"/>
<feGaussianBlur stdDeviation="2" result="effect1_foregroundBlur_1965_7636"/>
</filter>
<radialGradient id="paint0_radial_1965_7636" cx="0" cy="0" r="1" gradientUnits="userSpaceOnUse" gradientTransform="translate(1200 642.919) rotate(90) scale(609.081)">
<stop stop-color="white"/>
<stop offset="0.266145" stop-color="white"/>
<stop offset="0.595433" stop-color="#FFAE38"/>
<stop offset="0.616919" stop-color="#FF9560"/>
<stop offset="1" stop-color="#193749"/>
</radialGradient>
<linearGradient id="paint1_linear_1965_7636" x1="460.528" y1="317.366" x2="893.9" y2="160.492" gradientUnits="userSpaceOnUse">
<stop stop-color="#FFDDAC"/>
<stop offset="0.0838498" stop-color="white"/>
<stop offset="1" stop-color="white" stop-opacity="0"/>
</linearGradient>
<radialGradient id="paint2_radial_1965_7636" cx="0" cy="0" r="1" gradientUnits="userSpaceOnUse" gradientTransform="translate(837.153 633.556) rotate(-172.807) scale(117.074 120.711)">
<stop stop-color="#2B3942"/>
<stop offset="0.806024" stop-color="#101417"/>
<stop offset="0.928916" stop-color="#FEC378"/>
<stop offset="1" stop-color="white"/>
</radialGradient>
<radialGradient id="paint3_radial_1965_7636" cx="0" cy="0" r="1" gradientUnits="userSpaceOnUse" gradientTransform="translate(1038.78 182.227) rotate(-40.4804) scale(75.2269 63.1784)">
<stop stop-color="#3D4F5A"/>
<stop offset="0.806024" stop-color="#101417"/>
<stop offset="0.928916" stop-color="#FEC378"/>
<stop offset="1" stop-color="white"/>
</radialGradient>
<radialGradient id="paint4_radial_1965_7636" cx="0" cy="0" r="1" gradientUnits="userSpaceOnUse" gradientTransform="translate(808.064 251.864) rotate(-149.34) scale(38.8278 32.9834)">
<stop stop-color="#6D93AD"/>
<stop offset="0.806024" stop-color="#101417"/>
<stop offset="0.928916" stop-color="#FEC378"/>
<stop offset="1" stop-color="white"/>
</radialGradient>
<clipPath id="clip0_1965_7636">
<rect width="1200" height="630" fill="white"/>
</clipPath>
</defs>
</svg>
