<svg width="512" height="512" viewBox="0 0 512 512" fill="none" xmlns="http://www.w3.org/2000/svg">
<path fill-rule="evenodd" clip-rule="evenodd" d="M256 468C373.084 468 468 373.084 468 256C468 138.916 373.084 44 256 44C138.916 44 44 138.916 44 256C44 373.084 138.916 468 256 468ZM256 512C397.385 512 512 397.385 512 256C512 114.615 397.385 0 256 0C114.615 0 0 114.615 0 256C0 397.385 114.615 512 256 512Z" fill="url(#paint0_angular_1170_3543)"/>
<path fill-rule="evenodd" clip-rule="evenodd" d="M256 468C373.084 468 468 373.084 468 256C468 138.916 373.084 44 256 44C138.916 44 44 138.916 44 256C44 373.084 138.916 468 256 468ZM476 256C476 377.503 377.503 476 256 476C134.497 476 36 377.503 36 256C36 134.497 134.497 36 256 36C377.503 36 476 134.497 476 256Z" fill="url(#paint1_linear_1170_3543)"/>
<path fill-rule="evenodd" clip-rule="evenodd" d="M256 36.7793C321.372 36.7793 380.145 65.0352 420.771 110C380.465 64.477 321.584 35.7793 256 35.7793C190.416 35.7793 131.535 64.4768 91.2291 110C131.855 65.0349 190.628 36.7793 256 36.7793ZM256 475C321.372 475 380.145 446.744 420.771 401.779C380.465 447.303 321.584 476 256 476C190.416 476 131.535 447.303 91.2291 401.78C131.855 446.745 190.628 475 256 475Z" fill="url(#paint2_linear_1170_3543)" fill-opacity="0.8"/>
<defs>
<radialGradient id="paint0_angular_1170_3543" cx="0" cy="0" r="1" gradientUnits="userSpaceOnUse" gradientTransform="translate(256 256) rotate(119.592) scale(357.698)">
<stop stop-color="#F1C6DD"/>
<stop offset="0.139053" stop-color="#C1A4E8"/>
<stop offset="0.238718" stop-color="#B8E2FB"/>
<stop offset="0.374927" stop-color="#F2EFE8"/>
<stop offset="0.477914" stop-color="#F9DCDD"/>
<stop offset="0.557645" stop-color="#E1C1E5"/>
<stop offset="0.624089" stop-color="#BDAFE3"/>
<stop offset="0.720431" stop-color="#C7EDEB"/>
<stop offset="0.830062" stop-color="#E7F5EB"/>
<stop offset="0.913116" stop-color="#F2F0E7"/>
<stop offset="1" stop-color="#DDC1E1"/>
</radialGradient>
<linearGradient id="paint1_linear_1170_3543" x1="256" y1="36" x2="256" y2="476" gradientUnits="userSpaceOnUse">
<stop stop-opacity="0.6"/>
<stop offset="0.0001" stop-opacity="0.4"/>
<stop offset="1" stop-opacity="0.1"/>
</linearGradient>
<linearGradient id="paint2_linear_1170_3543" x1="256" y1="110" x2="256" y2="35.7793" gradientUnits="userSpaceOnUse">
<stop stop-color="white"/>
<stop offset="1" stop-color="white"/>
</linearGradient>
</defs>
</svg>
