<svg width="512" height="512" viewBox="0 0 512 512" fill="none" xmlns="http://www.w3.org/2000/svg">
<g filter="url(#filter0_f_979_6548)">
<path d="M418 266.526C409.923 293.802 395.226 318.562 373.246 337.894C358.284 351.002 341.866 360.535 322.932 366.229C321.475 366.626 320.284 367.023 318.827 367.421C293.008 374.438 266.129 373.114 241.766 362.786C221.243 354.047 203.898 339.88 192.378 320.151C192.114 319.754 191.849 319.489 191.584 319.092C190.657 317.503 189.995 316.047 189.201 314.458C183.64 303.998 180.197 292.743 178.873 281.224C177.946 280.561 177.019 280.032 175.96 279.767C174.239 279.37 172.517 279.767 171.061 280.826C169.869 281.621 168.942 282.548 168.016 283.607C164.705 287.844 163.116 292.478 161.925 297.642C160.601 303.6 160.336 309.294 160.468 315.252C160.733 320.946 161.528 326.374 162.852 332.068C162.984 332.465 163.116 332.73 163.249 333.127C173.709 374.438 207.208 404.23 245.474 418C233.689 414.557 222.7 409.923 211.842 403.832C210.386 402.906 208.929 402.244 207.473 401.317C203.103 398.536 199.131 396.02 195.159 392.843C193.835 391.783 192.643 390.857 191.319 389.797C184.964 384.633 179.403 379.47 173.974 373.246C172.915 372.055 171.988 370.863 170.928 369.671C158.747 354.974 150.405 339.085 145.109 320.946C136.37 290.757 139.018 258.847 154.378 231.041C154.642 230.512 155.04 230.247 155.304 229.717C160.733 219.919 167.486 211.577 175.828 204.03C188.141 193.04 201.912 185.361 218.065 181.389C218.727 181.124 219.389 180.859 220.184 180.727C223.759 180.065 227.069 179.27 230.644 178.873C231.306 178.078 231.836 177.152 232.101 176.225C232.498 174.503 232.233 172.782 231.306 171.326C230.512 170.134 229.717 169.207 228.658 168.28C222.302 163.116 214.49 161.528 206.678 160.733C198.469 159.939 190.525 160.601 182.183 162.454C181.786 162.587 181.389 162.454 180.991 162.587C176.622 163.646 172.517 164.838 168.28 166.427C162.322 168.678 156.761 171.326 151.067 174.636C145.771 177.814 141.137 181.124 136.238 184.964C116.244 201.25 102.474 222.038 94 245.474C96.1185 237.794 98.8991 230.512 102.209 223.229C103.004 221.64 103.666 220.184 104.46 218.595C110.418 206.546 117.833 195.821 126.837 185.758C130.677 181.521 134.517 177.814 138.754 173.974C147.492 166.294 156.629 159.939 166.956 154.642C176.754 149.743 186.288 146.036 197.145 143.52C219.787 138.224 242.163 139.151 263.613 146.698C264.673 147.095 265.732 147.492 266.924 147.89C269.704 148.949 272.22 150.141 274.868 151.332C275.927 151.862 276.854 152.391 277.913 152.789C280.429 153.98 282.68 155.437 285.196 156.893C287.049 158.085 288.638 159.277 290.624 160.468C291.022 160.733 291.419 161.13 291.816 161.528C298.436 166.162 303.6 171.061 308.897 176.887C312.736 181.256 315.914 185.493 318.96 190.525C326.639 203.103 331.141 216.477 333.127 230.644C335.246 232.763 338.688 232.763 341.204 230.909C345.176 227.863 347.162 223.494 348.619 218.992C353.783 202.971 351.664 186.288 346.368 170.664C342.66 159.939 337.629 150.67 330.744 141.137C321.74 128.691 311.942 119.687 299.363 110.816C297.774 109.756 296.318 108.83 294.729 107.77C285.461 101.944 276.324 97.575 266.526 94C299.761 103.533 329.022 123.13 349.281 153.451C356.96 164.97 362.389 176.225 366.229 189.068C368.745 197.807 370.466 206.281 371.26 215.285C371.79 222.435 371.79 229.585 371.128 236.735C370.466 242.296 369.671 247.725 368.347 253.286C361.727 279.899 347.162 302.144 323.726 317.503C310.353 326.242 296.318 331.141 281.224 333.127C279.899 334.848 279.237 336.967 279.899 338.953C281.091 342.528 284.401 344.646 287.579 346.5C287.711 346.633 287.976 346.5 288.109 346.633C290.757 347.957 293.405 348.884 296.186 349.678C297.112 349.943 298.039 350.075 298.966 350.208C318.165 354.047 336.437 349.546 353.385 341.336C383.045 326.772 404.627 300.687 416.544 270.366C417.073 269.042 417.47 267.718 418 266.526Z" fill="white"/>
</g>
<defs>
<filter id="filter0_f_979_6548" x="70" y="70" width="372" height="372" filterUnits="userSpaceOnUse" color-interpolation-filters="sRGB">
<feFlood flood-opacity="0" result="BackgroundImageFix"/>
<feBlend mode="normal" in="SourceGraphic" in2="BackgroundImageFix" result="shape"/>
<feGaussianBlur stdDeviation="12" result="effect1_foregroundBlur_979_6548"/>
</filter>
</defs>
</svg>
