<svg width="512" height="512" viewBox="0 0 512 512" fill="none" xmlns="http://www.w3.org/2000/svg">
<g filter="url(#filter0_f_985_3859)">
<path d="M390.176 154.663C397.561 179.61 398.874 205.705 392.638 231.8C388.042 250.51 380.493 266.758 368.512 282.021C368.184 282.513 367.691 282.677 367.363 283.17C352.921 301.387 333.554 314.024 311.726 319.768C319.276 325.513 328.795 327.646 338.15 327.974C349.802 328.303 361.291 325.513 372.123 321.081C374.42 320.097 376.554 318.948 378.852 317.963C396.741 308.772 411.347 294.986 423 279.067C405.931 310.249 378.359 335.852 344.222 347.669C341.925 348.325 339.791 349.146 337.493 349.802C316.158 355.875 294.166 356.367 272.83 349.966C265.937 347.833 259.536 345.207 253.136 341.76C252.315 341.268 251.494 340.776 250.838 340.283C251.823 347.833 255.433 354.562 260.193 360.798C267.086 369.333 275.456 375.569 285.139 380.493C307.952 391.981 333.719 394.279 358.337 390.176C323.215 400.516 284.318 398.71 251.002 381.313C250.51 380.985 249.853 380.985 249.361 380.657C246.407 378.688 243.452 377.375 240.498 375.405C236.559 372.779 233.277 370.482 229.666 367.527C228.846 366.707 228.189 366.05 227.205 365.394C226.712 365.066 226.548 364.573 226.056 364.245C225.563 363.917 225.235 363.588 224.743 363.26C219.655 358.501 215.224 353.741 210.957 348.161C210.3 347.341 209.808 346.52 209.151 345.699C207.018 342.745 205.377 339.955 203.407 336.837C201.274 333.39 199.796 329.944 198.155 326.333C196.186 321.574 194.216 316.814 193.232 311.726C185.518 322.23 184.041 335.852 185.682 348.654V349.802C186.831 358.501 189.457 366.543 192.903 374.42C193.56 375.897 194.38 377.375 195.037 378.852C204.228 396.741 217.85 411.512 233.933 423C200.617 404.947 174.03 374.913 163.198 337.657C163.034 337.001 163.034 336.509 162.869 335.852C159.259 323.543 157.946 311.07 158.766 298.433C159.587 281.692 164.018 265.28 172.552 250.838C166.152 251.987 160.243 254.284 154.992 258.387C154.663 258.551 154.499 258.551 154.171 258.716C150.068 261.998 146.457 265.28 143.011 269.219C141.862 270.532 141.041 271.845 139.893 273.158C137.267 276.769 135.133 280.215 133 284.154C130.209 289.57 127.912 294.986 126.271 300.895C126.106 301.223 125.942 301.715 125.778 302.043C120.198 320.589 119.87 339.627 122.66 358.337C119.378 346.356 117.08 334.047 116.587 321.574C116.259 312.383 116.587 303.52 117.9 294.33C120.362 277.754 124.958 262.49 133.164 247.884C135.79 243.452 138.251 239.349 141.37 235.082C145.144 229.995 148.755 225.727 153.022 221.296C166.48 207.674 182.892 197.991 201.109 193.232C194.873 188.308 187.159 186.174 179.281 185.518C151.709 182.892 126.106 196.35 106.248 215.06C105.591 215.88 104.935 216.537 104.114 217.193C103.786 217.521 103.458 218.014 103.13 218.342C102.801 218.67 102.309 218.999 101.981 219.327C97.7137 224.25 93.4465 228.682 90 233.933C107.233 202.258 135.625 176.491 170.419 164.839C200.617 154.663 234.754 156.633 262.162 172.717C261.506 167.629 259.372 162.869 256.91 158.274C255.433 155.812 253.792 153.843 252.151 151.545C246.899 144.98 240.827 140.221 233.605 135.79C209.315 121.183 181.415 118.557 154.663 122.824C184.862 114.126 217.686 113.962 247.391 125.286C248.048 125.45 248.54 125.614 249.197 125.778C269.548 133.82 287.273 145.965 301.059 163.69C301.715 164.511 302.207 165.331 302.864 166.152C303.192 166.644 303.356 166.972 303.685 167.465C304.013 167.957 304.341 168.121 304.669 168.614C311.891 179.117 316.814 189.621 319.768 201.274C330.436 186.01 329.287 165.824 323.871 148.591L323.379 147.606C319.932 136.938 314.845 127.748 308.116 118.393L304.669 113.962C297.12 104.607 288.586 96.8931 279.067 90C285.795 93.7748 292.032 97.7137 298.433 102.473C309.265 110.843 318.291 119.213 326.497 130.374C326.99 130.866 327.318 131.358 327.81 131.851C342.581 151.545 351.444 173.209 353.905 197.006C356.203 219.655 351.772 242.632 340.283 262.162C342.417 261.998 344.551 261.177 346.684 260.685C349.802 259.7 352.428 258.223 355.382 256.582C363.096 251.658 369.004 245.914 374.256 238.201C375.897 235.575 377.375 233.441 378.852 230.815C381.149 226.712 382.955 222.609 384.76 218.178C386.237 214.239 387.55 210.3 388.535 206.033C389.848 199.961 390.997 194.38 391.489 188.472C392.474 177.148 391.981 165.824 390.176 154.663Z" fill="white"/>
</g>
<defs>
<filter id="filter0_f_985_3859" x="66" y="66" width="381" height="381" filterUnits="userSpaceOnUse" color-interpolation-filters="sRGB">
<feFlood flood-opacity="0" result="BackgroundImageFix"/>
<feBlend mode="normal" in="SourceGraphic" in2="BackgroundImageFix" result="shape"/>
<feGaussianBlur stdDeviation="12" result="effect1_foregroundBlur_985_3859"/>
</filter>
</defs>
</svg>
