<svg width="512" height="512" viewBox="0 0 512 512" fill="none" xmlns="http://www.w3.org/2000/svg">
<g filter="url(#filter0_f_978_6541)">
<path fill-rule="evenodd" clip-rule="evenodd" d="M273.501 87.1721C277.378 87.6862 283.064 88.6244 286.138 89.2567C302.217 92.5658 318.498 98.9527 332.393 107.402C345.685 115.485 358.577 126.688 367.962 138.312C374.958 146.977 381.304 157.901 385.52 168.54C391.29 183.098 394.016 197.009 394.009 211.859C394.005 220.425 393.576 225.314 392.179 232.735C388.836 250.485 380.539 268.3 368.093 284.451C364.34 289.32 351.204 302.591 346.721 306.042C343.898 308.215 343.968 308.115 348.313 303.764C357.315 294.749 364.108 285.106 370.402 272.405C375.215 262.693 378.807 252.294 380.794 242.317C382.433 234.081 383.099 227.541 383.099 219.646C383.099 209.072 381.818 199.885 378.82 188.951C374.897 174.642 367.305 159.684 357.035 146.025C348.919 135.231 340.091 126.301 330.022 118.704C323.346 113.666 316.983 109.693 309.427 105.846C301.514 101.816 295.988 99.5368 287.448 96.7777C264.003 89.2026 237.684 87.0966 212.79 90.8049C209.539 91.289 206.162 91.7908 205.287 91.9195C204.411 92.0481 205.639 91.654 208.015 91.0435C213.875 89.538 227.003 87.3648 233.937 86.7525C237.063 86.4762 240.44 86.1707 241.44 86.0739C242.441 85.9766 248.478 85.9739 254.856 86.0671C263.121 86.1884 268.477 86.5057 273.501 87.1721ZM203.345 92.4495C203.194 92.6004 202.801 92.6167 202.473 92.4854C202.11 92.3404 202.218 92.2326 202.748 92.2108C203.227 92.1913 203.496 92.2985 203.345 92.4495ZM201.497 92.9326C201.33 93.099 201.058 93.099 200.891 92.9326C200.724 92.7658 200.861 92.6295 201.194 92.6295C201.527 92.6295 201.664 92.7658 201.497 92.9326ZM256.22 105.143C271.055 106.978 284.114 110.789 297.376 117.154C308.114 122.307 316.889 128.054 326.026 135.918C337.792 146.044 347.5 158.595 354.249 172.404C359.237 182.61 362.394 192.437 364.508 204.334C365.714 211.119 366.184 226.616 365.396 233.567C363.991 245.954 360.644 257.487 355.174 268.795C349.459 280.609 342.275 290.992 333.554 300.039C330.941 302.75 327.027 306.384 324.856 308.114C311.534 318.733 295.688 325.198 278.049 327.212C271.632 327.944 259.204 327.495 253.434 326.322C240.887 323.772 232.402 319.72 223.379 311.969C218.866 308.093 214.451 302.558 211.84 297.505C210.681 295.263 209.271 291.566 208.632 289.092C207.729 285.601 207.482 283.49 207.45 278.996C207.371 267.985 210.16 258.881 216.59 249.162C224.486 237.227 236.986 227.431 250.308 222.739C256.837 220.439 260.886 219.706 267.134 219.691C274.244 219.673 277.346 220.541 280.132 223.327C282.532 225.725 283.506 228.571 283.506 233.182C283.506 237.063 282.6 240.394 280.318 244.914C278.303 248.903 273.792 254.593 270.41 257.411C264.731 262.144 257.465 264.785 253.442 263.58C252.071 263.17 251.673 262.821 251.673 262.033C251.673 261.474 252.01 260.535 252.422 259.947L253.171 258.878L253.988 259.96C254.66 260.849 255.194 261.034 256.991 261.001C259.848 260.948 263.455 259.345 266.855 256.618C272.217 252.317 276.284 246.326 277.783 240.521C278.179 238.985 278.503 236.42 278.503 234.822C278.503 232.704 278.226 231.372 277.48 229.914C276.917 228.813 275.88 227.491 275.173 226.977C274.036 226.148 273.229 226.041 268.124 226.045C261.67 226.051 258.561 226.687 252.127 229.316C245.283 232.113 241.468 234.68 235.715 240.359C232.803 243.234 229.398 247.121 228.149 248.996C221.326 259.236 218.151 270.153 219.359 279.223C220.751 289.683 225.994 297.575 236.105 304.428C239.619 306.81 244.757 309.009 250.111 310.424C253.774 311.391 255.114 311.495 263.724 311.484C271.829 311.474 273.927 311.324 277.594 310.493C292.618 307.089 304.997 300.463 315.823 290.03C325.814 280.403 332.413 270.143 336.865 257.315C340.349 247.281 341.505 239.236 341.123 227.687C340.924 221.656 340.572 218.312 339.7 214.15C337.454 203.43 333.569 193.556 327.695 183.637C308.617 151.422 276.109 131.046 237.64 127.193C231.608 126.588 218.564 126.586 212.498 127.189C194.92 128.934 177.052 134.423 161.857 142.746C156.031 145.937 145.875 152.78 140.029 157.454C133.791 162.441 121.216 174.939 116.07 181.267C108.508 190.566 101.094 201.839 96.4887 211.041C93.5741 216.865 90.3585 225.112 89.0906 230.015C87.7291 235.282 87.6249 233.315 88.8764 225.972C92.4149 205.22 103.696 182.405 120.618 161.775C125.856 155.39 134.414 146.601 140.483 141.375C148.524 134.451 156.034 129.33 166.543 123.604C186.559 112.699 207.782 106.259 229.617 104.465C236.151 103.928 249.061 104.257 256.22 105.143ZM267.817 171.996C276.537 173.193 283.241 175.224 290.548 178.883C296.568 181.897 300.921 185.006 305.952 189.879C313.392 197.087 318.517 205.821 321.091 215.68C321.995 219.137 322.306 221.655 322.485 226.95C322.66 232.1 322.534 234.82 321.967 238.069C319.971 249.524 314.225 260.751 305.862 269.535C301.593 274.019 296.393 278.27 291.604 281.19C288.267 283.224 283.961 285.48 283.961 285.194C283.961 285.094 285.34 284.119 287.026 283.027C290.725 280.632 298.389 273.14 301.588 268.793C306.727 261.809 311.078 252.777 313.048 245.005C314.401 239.662 315.333 233.018 315.336 228.687C315.344 217.895 311.915 207.309 305.706 198.96C302.331 194.423 295.956 188.395 291.237 185.28C281.76 179.025 270.325 174.834 257.812 173.029C255.561 172.704 250.258 172.43 246.027 172.421C237.498 172.402 238.662 171.949 248.717 171.376C256.161 170.951 261.455 171.123 267.817 171.996ZM257.72 184.87C269.703 187.272 278.971 191.677 287.26 198.907C292.462 203.444 296.875 208.961 299.581 214.31C300.238 215.608 301.329 218.472 302.006 220.674C303.137 224.355 303.238 225.317 303.262 232.632C303.285 239.601 303.154 241.093 302.21 244.677C300.94 249.494 298.323 255.753 295.956 259.635C291.552 266.86 284.047 274.856 276.82 280.024C269.728 285.095 261.257 288.871 253.037 290.624C247.768 291.747 239.193 291.778 235.644 290.685C225.792 287.653 224.494 275.12 232.749 262.71C237.984 254.838 244.497 249.687 251.533 247.856C255.058 246.937 257.259 246.996 258.55 248.04C259.6 248.89 259.604 248.929 258.835 250.54C258.034 252.219 257.13 252.72 257.13 251.484C257.13 251.103 256.567 250.576 255.879 250.312C252.612 249.059 246.341 252.004 241.213 257.2C239.337 259.1 237.135 261.779 236.319 263.152C233.354 268.142 231.819 274.55 232.596 278.694C233.075 281.248 233.981 282.742 235.935 284.195C237.066 285.037 237.804 285.128 243.183 285.088C248.274 285.05 249.785 284.861 253.264 283.825C258.141 282.373 264.665 279.326 268.564 276.679C270.115 275.626 272.995 273.227 274.962 271.348C283.051 263.624 288.933 253.407 291.031 243.44C291.394 241.713 291.692 238.23 291.692 235.7C291.692 228.615 290.085 223.299 286.229 217.624C282.255 211.775 274.783 205.845 267.928 203.102C261.349 200.469 258.051 199.843 249.399 199.586C242.633 199.385 240.595 199.494 235.8 200.311C218.793 203.209 202.028 212.588 190.618 225.586C183.887 233.255 178.216 242.72 174.685 252.178C171.188 261.544 169.806 269.516 169.78 280.465C169.767 286.213 170.001 289.482 170.738 293.847C172.417 303.786 175.145 311.957 179.953 321.454C182.991 327.455 188.158 335.488 192.551 341.043C196.646 346.22 204.3 353.927 209.607 358.218C218.802 365.653 230.592 372.483 241.116 376.471C249.17 379.524 258.25 381.86 268.044 383.4C272.206 384.054 275.875 384.218 286.007 384.202C296.805 384.184 299.708 384.03 305.107 383.185C312.303 382.058 321.993 379.715 328.207 377.6C340.967 373.255 352.985 366.962 364.326 358.688C371.994 353.093 377.034 348.757 384.012 341.754C396.922 328.797 406.854 315.165 414.448 299.979C417.93 293.015 420.42 286.66 422.045 280.587L423.14 276.496L422.869 279.678C422.24 287.103 419.561 297.597 415.967 306.724C413.627 312.664 409.282 321.521 405.791 327.464C394.67 346.4 376.886 366.044 360.036 378.006C351.812 383.845 338.54 391.043 328.048 395.354C321.425 398.075 311.536 401.336 305.247 402.872C297.655 404.727 287.663 406.211 278.954 406.776C272.712 407.181 268.985 407.177 262.95 406.76C249.611 405.839 237.532 403.373 225.777 399.171C213.675 394.845 198.841 386.538 188.461 378.273C182.546 373.564 172.771 363.488 168.126 357.31C160.966 347.789 155.38 337.503 151.64 326.952C149.453 320.78 147.227 311.674 146.125 304.386C145.36 299.328 145.139 295.815 145.144 288.769C145.15 279.038 145.711 273.887 147.749 264.865C150.675 251.905 157.114 237.591 165.213 226.041C169.591 219.796 174.835 213.478 179.253 209.124C190.523 198.015 204.206 190.355 220.091 186.261C228.445 184.108 233.451 183.574 243.714 183.739C250.776 183.852 253.907 184.105 257.72 184.87ZM164.048 206.17C159.903 210.044 156.45 213.966 152.282 219.537C139.433 236.704 131.109 257.459 128.652 278.45C127.879 285.063 127.773 297.318 128.439 303.315C130 317.379 133.943 330.583 140.455 343.555C150.575 363.712 164.612 380.477 182.408 393.659C198.114 405.293 217.077 413.773 237.434 418.268C250.099 421.063 260.463 422.171 273.956 422.171C283.388 422.171 290.492 421.655 299.156 420.341C302.386 419.851 305.098 419.519 305.181 419.603C305.413 419.834 297.573 421.565 291.687 422.582C279.367 424.71 273.9 425.129 258.721 425.11C242.891 425.09 238.343 424.685 225.751 422.176C210.77 419.191 195.714 413.688 183.301 406.66C177.027 403.108 169.485 398.057 164.26 393.909C157.998 388.938 148.8 379.903 143.759 373.771C139.22 368.249 134.515 361.346 131.41 355.653C126.744 347.096 121.828 333.893 119.624 323.997C117.755 315.609 116.957 308.211 116.951 299.224C116.943 287.498 118.388 277.62 121.672 266.955C125.945 253.072 133.28 239.244 143.011 226.723C147.309 221.193 156.48 211.771 162.312 206.894C164.813 204.803 166.962 203.097 167.087 203.104C167.212 203.111 165.844 204.491 164.048 206.17ZM227.115 226.041C227.115 226.166 227.013 226.268 226.888 226.268C226.763 226.268 226.661 226.166 226.661 226.041C226.661 225.916 226.763 225.813 226.888 225.813C227.013 225.813 227.115 225.916 227.115 226.041ZM226.206 226.431C226.206 226.521 225.051 227.361 223.638 228.298C220.148 230.614 213.461 237.12 210.307 241.268C203.797 249.831 200.213 257.117 197.792 266.711C196.134 273.283 195.589 278.501 195.866 285.133C196.366 297.053 200.28 306.753 208.368 316.117C211.025 319.193 216.386 323.721 220.521 326.381C228.128 331.274 238.079 335.253 247.432 337.141C253.533 338.372 262.832 339.153 268.044 338.872C271.333 338.695 271.876 338.738 270.318 339.05C269.192 339.276 264.113 339.589 259.03 339.746C248.424 340.073 242.781 339.575 235.016 337.629C216.132 332.895 201.626 321.78 193.798 306.042C190.144 298.697 188.381 290.959 188.368 282.214C188.355 273.227 190.117 265.649 194.137 257.405C196.697 252.157 199.939 247.323 203.702 243.147C209.319 236.913 215.538 231.969 222.602 228.12C226.114 226.207 226.206 226.164 226.206 226.431ZM257.039 254.087C257.339 254.387 257.584 255.062 257.584 255.587C257.584 256.112 257.339 256.787 257.039 257.087C256.739 257.387 256.063 257.632 255.538 257.632C255.013 257.632 254.337 257.387 254.037 257.087C253.737 256.787 253.492 256.112 253.492 255.587C253.492 255.062 253.737 254.387 254.037 254.087C254.337 253.787 255.013 253.541 255.538 253.541C256.063 253.541 256.739 253.787 257.039 254.087ZM310.64 418.393C310.473 418.559 310.2 418.559 310.034 418.393C309.867 418.226 310.003 418.089 310.337 418.089C310.67 418.089 310.807 418.226 310.64 418.393ZM308.821 418.847C308.654 419.014 308.381 419.014 308.214 418.847C308.048 418.68 308.184 418.544 308.518 418.544C308.851 418.544 308.988 418.68 308.821 418.847ZM307.03 419.273C306.879 419.424 306.487 419.44 306.159 419.309C305.796 419.164 305.904 419.056 306.434 419.034C306.913 419.015 307.181 419.122 307.03 419.273Z" fill="white"/>
</g>
<defs>
<filter id="filter0_f_978_6541" x="72" y="69.999" width="367.14" height="371.11" filterUnits="userSpaceOnUse" color-interpolation-filters="sRGB">
<feFlood flood-opacity="0" result="BackgroundImageFix"/>
<feBlend mode="normal" in="SourceGraphic" in2="BackgroundImageFix" result="shape"/>
<feGaussianBlur stdDeviation="8" result="effect1_foregroundBlur_978_6541"/>
</filter>
</defs>
</svg>
